<svg width="194" height="138" viewBox="0 0 194 138" fill="none" xmlns="http://www.w3.org/2000/svg">
<g filter="url(#filter0_d)">
<path d="M98 49.0115C98 73.312 78.3005 93.0115 54 93.0115C29.6995 93.0115 10 73.312 10 49.0115C10 24.7109 29.6995 5.01147 54 5.01147C78.3005 5.01147 98 24.7109 98 49.0115Z" fill="#6B6B6B"/>
</g>
<g filter="url(#filter1_d)">
<path d="M100.378 88.2897C100.378 107.453 81.2658 122.989 57.6892 122.989C34.1126 122.989 15 107.453 15 88.2897C15 69.5682 33.2409 54.3097 56.0648 53.6156C56.6038 53.5992 57.1453 53.5909 57.6892 53.5909C81.2658 53.5909 100.378 69.1261 100.378 88.2897Z" fill="#B9BFC5"/>
<path d="M158 70.5C158 99.4886 134.562 122.989 105.649 122.989C76.7358 122.989 53.2973 99.4886 53.2973 70.5C53.2973 64.5932 54.2705 58.9143 56.0648 53.6156C63.0764 32.9103 82.6272 18.0115 105.649 18.0115C134.562 18.0115 158 41.5114 158 70.5Z" fill="#B9BFC5"/>
<path d="M184 88.2897C184 107.453 162.292 122.989 135.514 122.989C108.735 122.989 87.027 107.453 87.027 88.2897C87.027 69.1261 108.735 53.5909 135.514 53.5909C162.292 53.5909 184 69.1261 184 88.2897Z" fill="#B9BFC5"/>
<path d="M51.8919 122.989L94.1272 106.377L135.514 122.989H51.8919Z" fill="#B9BFC5"/>
</g>
<defs>
<filter id="filter0_d" x="0" y="0.0114746" width="108" height="108" filterUnits="userSpaceOnUse" color-interpolation-filters="sRGB">
<feFlood flood-opacity="0" result="BackgroundImageFix"/>
<feColorMatrix in="SourceAlpha" type="matrix" values="0 0 0 0 0 0 0 0 0 0 0 0 0 0 0 0 0 0 127 0" result="hardAlpha"/>
<feOffset dy="5"/>
<feGaussianBlur stdDeviation="5"/>
<feComposite in2="hardAlpha" operator="out"/>
<feColorMatrix type="matrix" values="0 0 0 0 0 0 0 0 0 0 0 0 0 0 0 0 0 0 0.25 0"/>
<feBlend mode="normal" in2="BackgroundImageFix" result="effect1_dropShadow"/>
<feBlend mode="normal" in="SourceGraphic" in2="effect1_dropShadow" result="shape"/>
</filter>
<filter id="filter1_d" x="5" y="13.0115" width="189" height="124.977" filterUnits="userSpaceOnUse" color-interpolation-filters="sRGB">
<feFlood flood-opacity="0" result="BackgroundImageFix"/>
<feColorMatrix in="SourceAlpha" type="matrix" values="0 0 0 0 0 0 0 0 0 0 0 0 0 0 0 0 0 0 127 0" result="hardAlpha"/>
<feOffset dy="5"/>
<feGaussianBlur stdDeviation="5"/>
<feComposite in2="hardAlpha" operator="out"/>
<feColorMatrix type="matrix" values="0 0 0 0 0 0 0 0 0 0 0 0 0 0 0 0 0 0 0.25 0"/>
<feBlend mode="normal" in2="BackgroundImageFix" result="effect1_dropShadow"/>
<feBlend mode="normal" in="SourceGraphic" in2="effect1_dropShadow" result="shape"/>
</filter>
</defs>
</svg>
