<svg width="207" height="188" viewBox="0 0 207 188" fill="none" xmlns="http://www.w3.org/2000/svg">
<path d="M93 53C93 77.3005 73.3005 97 49 97C24.6995 97 5 77.3005 5 53C5 28.6995 24.6995 9 49 9C73.3005 9 93 28.6995 93 53Z" fill="#6B6B6B"/>
<path d="M158.054 82.1228C151.794 59.56 131.152 43 106.649 43C83.4271 43 63.675 57.8729 56.3436 78.63C33.493 79.6188 15 95.0327 15 114.278C15 134.178 34.764 149.977 58.6892 149.977H106.62C106.629 149.977 106.639 149.977 106.649 149.977C106.658 149.977 106.668 149.977 106.677 149.977H136.514C150.087 149.977 162.418 146.041 171.381 139.627C180.341 133.215 186 124.266 186 114.278C186 104.291 180.341 95.3419 171.381 88.9293C167.51 86.159 163.01 83.8511 158.054 82.1228Z" fill="white" stroke="#55AAFF" stroke-width="2"/>
<path d="M101.378 114.278C101.378 133.442 82.2658 148.977 58.6892 148.977C35.1126 148.977 16 133.442 16 114.278C16 95.5567 34.2409 80.2982 57.0648 79.6041C57.6038 79.5877 58.1453 79.5795 58.6892 79.5795C82.2658 79.5795 101.378 95.1146 101.378 114.278Z" fill="#55AAFF"/>
<path d="M159 96.4885C159 125.477 135.562 148.977 106.649 148.977C77.7358 148.977 54.2973 125.477 54.2973 96.4885C54.2973 90.5817 55.2705 84.9028 57.0648 79.6041C64.0764 58.8988 83.6272 44 106.649 44C135.562 44 159 67.4999 159 96.4885Z" fill="#55AAFF"/>
<path d="M185 114.278C185 133.442 163.292 148.977 136.514 148.977C109.735 148.977 88.027 133.442 88.027 114.278C88.027 95.1146 109.735 79.5795 136.514 79.5795C163.292 79.5795 185 95.1146 185 114.278Z" fill="#55AAFF"/>
<path d="M58.6892 148.977L95.1272 132.365L136.514 148.977H58.6892Z" fill="#55AAFF"/>
<path d="M60 125.82C60 122.053 63.134 119 67 119C70.866 119 74 122.053 74 125.82C74 129.586 70.866 123.133 67 123.133C63.134 123.133 60 129.586 60 125.82Z" fill="#55AAFF"/>
<path d="M125 125.82C125 122.053 128.134 119 132 119C135.866 119 139 122.053 139 125.82C139 129.586 135.866 123.133 132 123.133C128.134 123.133 125 129.586 125 125.82Z" fill="#55AAFF"/>
<path d="M106 130.18C106 133.947 102.866 137 99 137C95.134 137 92 133.947 92 130.18C92 126.414 95.134 132.867 99 132.867C102.866 132.867 106 126.414 106 130.18Z" fill="#55AAFF"/>
<path d="M145.054 75.1228C138.794 52.56 118.152 36 93.6487 36C70.4271 36 50.675 50.8729 43.3436 71.63C20.493 72.6188 2 88.0327 2 107.278C2 127.178 21.764 142.977 45.6892 142.977H93.6198C93.6294 142.977 93.639 142.977 93.6487 142.977C93.6583 142.977 93.6679 142.977 93.6775 142.977H123.514C137.087 142.977 149.418 139.041 158.381 132.627C167.341 126.215 173 117.266 173 107.278C173 97.2905 167.341 88.3419 158.381 81.9293C154.51 79.159 150.01 76.8511 145.054 75.1228Z" fill="white" stroke="#55AAFF" stroke-width="2"/>
<path d="M88.3784 107.278C88.3784 126.442 69.2658 141.977 45.6892 141.977C22.1126 141.977 3 126.442 3 107.278C3 88.5567 21.2409 73.2982 44.0648 72.6041C44.6038 72.5877 45.1453 72.5795 45.6892 72.5795C69.2658 72.5795 88.3784 88.1146 88.3784 107.278Z" fill="white"/>
<path d="M146 89.4885C146 118.477 122.562 141.977 93.6487 141.977C64.7358 141.977 41.2973 118.477 41.2973 89.4885C41.2973 83.5817 42.2705 77.9028 44.0648 72.6041C51.0764 51.8988 70.6272 37 93.6487 37C122.562 37 146 60.4999 146 89.4885Z" fill="white"/>
<path d="M172 107.278C172 126.442 150.292 141.977 123.514 141.977C96.7352 141.977 75.027 126.442 75.027 107.278C75.027 88.1146 96.7352 72.5795 123.514 72.5795C150.292 72.5795 172 88.1146 172 107.278Z" fill="white"/>
<path d="M45.6892 141.977L82.1272 125.365L123.514 141.977H45.6892Z" fill="white"/>
<path d="M61 113.18C61 116.947 57.866 120 54 120C50.134 120 47 116.947 47 113.18C47 109.414 50.134 115.867 54 115.867C57.866 115.867 61 109.414 61 113.18Z" fill="#55AAFF"/>
<path d="M126 113.18C126 116.946 122.866 120 119 120C115.134 120 112 116.946 112 113.18C112 109.413 115.134 115.867 119 115.867C122.866 115.867 126 109.413 126 113.18Z" fill="#55AAFF"/>
<path d="M74 128.82C74 125.053 80.0442 122 87.5 122C94.9558 122 101 125.053 101 128.82C101 132.586 94.9558 134.5 87.5 134.5C80.0442 134.5 74 132.586 74 128.82Z" fill="#55AAFF"/>
<path d="M161.804 27.4343L166.352 25.3138L167.048 26.8069L160.177 30.0107L159.669 28.9203L161.134 20.4156L156.679 22.4928L155.977 20.9873L162.743 17.8325L163.239 18.8981L161.804 27.4343Z" fill="#55AAFF"/>
<path d="M178.154 22.9368L184.386 21.2671L184.934 23.3131L175.519 25.8359L175.119 24.3417L178.872 13.9002L172.768 15.5357L172.215 13.4727L181.486 10.9887L181.877 12.4489L178.154 22.9368Z" fill="#55AAFF"/>
<path d="M196.897 21.1758H205.499V24H192.503V21.9375L200.94 9.78516H192.515V6.9375H205.311V8.95312L196.897 21.1758Z" fill="#55AAFF"/>
</svg>
