<svg width="188" height="188" viewBox="0 0 188 188" fill="none" xmlns="http://www.w3.org/2000/svg">
<path d="M158.054 82.1228C151.794 59.56 131.152 43 106.649 43C83.4271 43 63.675 57.8729 56.3436 78.63C33.493 79.6188 15 95.0327 15 114.278C15 134.178 34.764 149.977 58.6892 149.977H106.62C106.629 149.977 106.639 149.977 106.649 149.977C106.658 149.977 106.668 149.977 106.677 149.977H136.514C150.087 149.977 162.418 146.041 171.381 139.627C180.341 133.215 186 124.266 186 114.278C186 104.291 180.341 95.3419 171.381 88.9293C167.51 86.159 163.01 83.8511 158.054 82.1228Z" fill="white" stroke="#55AAFF" stroke-width="2"/>
<path d="M101.378 114.278C101.378 133.442 82.2658 148.977 58.6892 148.977C35.1126 148.977 16 133.442 16 114.278C16 95.5567 34.2409 80.2982 57.0648 79.6041C57.6038 79.5877 58.1453 79.5795 58.6892 79.5795C82.2658 79.5795 101.378 95.1146 101.378 114.278Z" fill="#55AAFF"/>
<path d="M159 96.4885C159 125.477 135.562 148.977 106.649 148.977C77.7358 148.977 54.2973 125.477 54.2973 96.4885C54.2973 90.5817 55.2705 84.9028 57.0648 79.6041C64.0764 58.8988 83.6272 44 106.649 44C135.562 44 159 67.4999 159 96.4885Z" fill="#55AAFF"/>
<path d="M185 114.278C185 133.442 163.292 148.977 136.514 148.977C109.735 148.977 88.027 133.442 88.027 114.278C88.027 95.1146 109.735 79.5795 136.514 79.5795C163.292 79.5795 185 95.1146 185 114.278Z" fill="#55AAFF"/>
<path d="M58.6892 148.977L95.1272 132.365L136.514 148.977H58.6892Z" fill="#55AAFF"/>
<path d="M60 125.82C60 122.053 63.134 119 67 119C70.866 119 74 122.053 74 125.82C74 129.586 70.866 123.133 67 123.133C63.134 123.133 60 129.586 60 125.82Z" fill="#55AAFF"/>
<path d="M125 125.82C125 122.053 128.134 119 132 119C135.866 119 139 122.053 139 125.82C139 129.586 135.866 123.133 132 123.133C128.134 123.133 125 129.586 125 125.82Z" fill="#55AAFF"/>
<path d="M106 130.18C106 133.947 102.866 137 99 137C95.134 137 92 133.947 92 130.18C92 126.414 95.134 132.867 99 132.867C102.866 132.867 106 126.414 106 130.18Z" fill="#55AAFF"/>
<path d="M145.054 75.1228C138.794 52.56 118.152 36 93.6487 36C70.4271 36 50.675 50.8729 43.3436 71.63C20.493 72.6188 2 88.0327 2 107.278C2 127.178 21.764 142.977 45.6892 142.977H93.6198C93.6294 142.977 93.639 142.977 93.6487 142.977C93.6583 142.977 93.6679 142.977 93.6775 142.977H123.514C137.087 142.977 149.418 139.041 158.381 132.627C167.341 126.215 173 117.266 173 107.278C173 97.2905 167.341 88.3419 158.381 81.9293C154.51 79.159 150.01 76.8511 145.054 75.1228Z" fill="white" stroke="#55AAFF" stroke-width="2"/>
<path d="M88.3784 107.278C88.3784 126.442 69.2658 141.977 45.6892 141.977C22.1126 141.977 3 126.442 3 107.278C3 88.5567 21.2409 73.2982 44.0648 72.6041C44.6038 72.5877 45.1453 72.5795 45.6892 72.5795C69.2658 72.5795 88.3784 88.1146 88.3784 107.278Z" fill="white"/>
<path d="M146 89.4885C146 118.477 122.562 141.977 93.6487 141.977C64.7358 141.977 41.2973 118.477 41.2973 89.4885C41.2973 83.5817 42.2705 77.9028 44.0648 72.6041C51.0764 51.8988 70.6272 37 93.6487 37C122.562 37 146 60.4999 146 89.4885Z" fill="white"/>
<path d="M172 107.278C172 126.442 150.292 141.977 123.514 141.977C96.7352 141.977 75.027 126.442 75.027 107.278C75.027 88.1146 96.7352 72.5795 123.514 72.5795C150.292 72.5795 172 88.1146 172 107.278Z" fill="white"/>
<path d="M45.6892 141.977L82.1272 125.365L123.514 141.977H45.6892Z" fill="white"/>
<path d="M47 118.82C47 115.053 50.134 112 54 112C57.866 112 61 115.053 61 118.82C61 122.586 57.866 116.133 54 116.133C50.134 116.133 47 122.586 47 118.82Z" fill="#55AAFF"/>
<path d="M112 118.82C112 115.053 115.134 112 119 112C122.866 112 126 115.053 126 118.82C126 122.586 122.866 116.133 119 116.133C115.134 116.133 112 122.586 112 118.82Z" fill="#55AAFF"/>
<path d="M93 123.18C93 126.947 89.866 130 86 130C82.134 130 79 126.947 79 123.18C79 119.414 82.134 125.867 86 125.867C89.866 125.867 93 119.414 93 123.18Z" fill="#55AAFF"/>
</svg>
