<svg width="189" height="126" viewBox="0 0 189 126" fill="none" xmlns="http://www.w3.org/2000/svg">
<g filter="url(#filter0_d)">
<path d="M95.3784 75.7897C95.3784 94.9533 76.2658 110.489 52.6892 110.489C29.1126 110.489 10 94.9533 10 75.7897C10 57.0682 28.2409 41.8097 51.0648 41.1156C51.6038 41.0992 52.1453 41.0909 52.6892 41.0909C76.2658 41.0909 95.3784 56.6261 95.3784 75.7897Z" fill="#B9BFC5"/>
<path d="M153 58C153 86.9886 129.562 110.489 100.649 110.489C71.7358 110.489 48.2973 86.9886 48.2973 58C48.2973 52.0932 49.2705 46.4143 51.0648 41.1156C58.0764 20.4103 77.6272 5.51147 100.649 5.51147C129.562 5.51147 153 29.0114 153 58Z" fill="#B9BFC5"/>
<path d="M179 75.7897C179 94.9533 157.292 110.489 130.514 110.489C103.735 110.489 82.027 94.9533 82.027 75.7897C82.027 56.6261 103.735 41.0909 130.514 41.0909C157.292 41.0909 179 56.6261 179 75.7897Z" fill="#B9BFC5"/>
<path d="M46.8919 110.489L89.1272 93.8769L130.514 110.489H46.8919Z" fill="#B9BFC5"/>
</g>
<defs>
<filter id="filter0_d" x="0" y="0.511475" width="189" height="124.977" filterUnits="userSpaceOnUse" color-interpolation-filters="sRGB">
<feFlood flood-opacity="0" result="BackgroundImageFix"/>
<feColorMatrix in="SourceAlpha" type="matrix" values="0 0 0 0 0 0 0 0 0 0 0 0 0 0 0 0 0 0 127 0" result="hardAlpha"/>
<feOffset dy="5"/>
<feGaussianBlur stdDeviation="5"/>
<feComposite in2="hardAlpha" operator="out"/>
<feColorMatrix type="matrix" values="0 0 0 0 0 0 0 0 0 0 0 0 0 0 0 0 0 0 0.25 0"/>
<feBlend mode="normal" in2="BackgroundImageFix" result="effect1_dropShadow"/>
<feBlend mode="normal" in="SourceGraphic" in2="effect1_dropShadow" result="shape"/>
</filter>
</defs>
</svg>
