<svg width="189" height="188" viewBox="0 0 189 188" fill="none" xmlns="http://www.w3.org/2000/svg">
<path d="M158.479 82.1228C152.219 59.56 131.577 43 107.073 43C83.8519 43 64.0998 57.8729 56.7684 78.63C33.9178 79.6188 15.4248 95.0327 15.4248 114.278C15.4248 134.178 35.1888 149.977 59.114 149.977H107.045C107.054 149.977 107.064 149.977 107.073 149.977C107.083 149.977 107.093 149.977 107.102 149.977H136.938C150.512 149.977 162.843 146.041 171.805 139.627C180.766 133.215 186.425 124.266 186.425 114.278C186.425 104.291 180.766 95.3419 171.805 88.9293C167.934 86.159 163.435 83.8511 158.479 82.1228Z" fill="white" stroke="#55AAFF" stroke-width="2"/>
<path d="M101.803 114.278C101.803 133.442 82.6906 148.977 59.114 148.977C35.5374 148.977 16.4248 133.442 16.4248 114.278C16.4248 95.5567 34.6657 80.2982 57.4896 79.6041C58.0286 79.5877 58.5701 79.5795 59.114 79.5795C82.6906 79.5795 101.803 95.1146 101.803 114.278Z" fill="#55AAFF"/>
<path d="M159.425 96.4885C159.425 125.477 135.986 148.977 107.073 148.977C78.1606 148.977 54.7221 125.477 54.7221 96.4885C54.7221 90.5817 55.6953 84.9028 57.4896 79.6041C64.5012 58.8988 84.052 44 107.073 44C135.986 44 159.425 67.4999 159.425 96.4885Z" fill="#55AAFF"/>
<path d="M185.425 114.278C185.425 133.442 163.717 148.977 136.938 148.977C110.16 148.977 88.4518 133.442 88.4518 114.278C88.4518 95.1146 110.16 79.5795 136.938 79.5795C163.717 79.5795 185.425 95.1146 185.425 114.278Z" fill="#55AAFF"/>
<path d="M59.114 148.977L95.552 132.365L136.938 148.977H59.114Z" fill="#55AAFF"/>
<path d="M60.4248 125.82C60.4248 122.053 63.5588 119 67.4248 119C71.2908 119 74.4248 122.053 74.4248 125.82C74.4248 129.586 71.2908 123.133 67.4248 123.133C63.5588 123.133 60.4248 129.586 60.4248 125.82Z" fill="#55AAFF"/>
<path d="M125.425 125.82C125.425 122.053 128.559 119 132.425 119C136.291 119 139.425 122.053 139.425 125.82C139.425 129.586 136.291 123.133 132.425 123.133C128.559 123.133 125.425 129.586 125.425 125.82Z" fill="#55AAFF"/>
<path d="M106.425 130.18C106.425 133.947 103.291 137 99.4248 137C95.5588 137 92.4248 133.947 92.4248 130.18C92.4248 126.414 95.5588 132.867 99.4248 132.867C103.291 132.867 106.425 126.414 106.425 130.18Z" fill="#55AAFF"/>
<path d="M145.479 75.1228C139.219 52.56 118.577 36 94.0735 36C70.8519 36 51.0998 50.8729 43.7684 71.63C20.9178 72.6188 2.4248 88.0327 2.4248 107.278C2.4248 127.178 22.1888 142.977 46.114 142.977H94.0446C94.0542 142.977 94.0639 142.977 94.0735 142.977C94.0831 142.977 94.0927 142.977 94.1023 142.977H123.938C137.512 142.977 149.843 139.041 158.805 132.627C167.766 126.215 173.425 117.266 173.425 107.278C173.425 97.2905 167.766 88.3419 158.805 81.9293C154.934 79.159 150.435 76.8511 145.479 75.1228Z" fill="white" stroke="#55AAFF" stroke-width="2"/>
<path d="M88.8032 107.278C88.8032 126.442 69.6906 141.977 46.114 141.977C22.5374 141.977 3.4248 126.442 3.4248 107.278C3.4248 88.5567 21.6657 73.2982 44.4896 72.6041C45.0286 72.5877 45.5701 72.5795 46.114 72.5795C69.6906 72.5795 88.8032 88.1146 88.8032 107.278Z" fill="white"/>
<path d="M146.425 89.4885C146.425 118.477 122.986 141.977 94.0735 141.977C65.1606 141.977 41.7221 118.477 41.7221 89.4885C41.7221 83.5817 42.6953 77.9028 44.4896 72.6041C51.5012 51.8988 71.052 37 94.0735 37C122.986 37 146.425 60.4999 146.425 89.4885Z" fill="white"/>
<path d="M172.425 107.278C172.425 126.442 150.717 141.977 123.938 141.977C97.16 141.977 75.4518 126.442 75.4518 107.278C75.4518 88.1146 97.16 72.5795 123.938 72.5795C150.717 72.5795 172.425 88.1146 172.425 107.278Z" fill="white"/>
<path d="M46.114 141.977L82.552 125.365L123.938 141.977H46.114Z" fill="white"/>
<path d="M126.425 113.18C126.425 116.947 123.291 120 119.425 120C115.559 120 112.425 116.947 112.425 113.18C112.425 109.414 115.559 115.867 119.425 115.867C123.291 115.867 126.425 109.414 126.425 113.18Z" fill="#55AAFF"/>
<path d="M61.4248 113.18C61.4248 116.947 58.2908 120 54.4248 120C50.5588 120 47.4248 116.947 47.4248 113.18C47.4248 109.414 50.5588 115.867 54.4248 115.867C58.2908 115.867 61.4248 109.414 61.4248 113.18Z" fill="#55AAFF"/>
<path d="M79.4248 128.82C79.4248 125.053 82.5588 122 86.4248 122C90.2908 122 93.4248 125.053 93.4248 128.82C93.4248 132.586 90.2908 126.133 86.4248 126.133C82.5588 126.133 79.4248 132.586 79.4248 128.82Z" fill="#55AAFF"/>
<path d="M124.71 100.89C125.18 101.705 122.848 103.933 119.5 105.866C116.152 107.799 113.056 108.705 112.585 107.89C112.114 107.074 115.635 106.904 118.983 104.971C122.331 103.038 124.239 100.074 124.71 100.89Z" fill="#55AAFF"/>
<path d="M60.9768 108.256C60.506 109.071 57.4102 108.165 54.0622 106.232C50.7141 104.299 48.3817 102.071 48.8525 101.256C49.3233 100.44 51.2308 103.404 54.5788 105.337C57.9269 107.27 61.4476 107.44 60.9768 108.256Z" fill="#55AAFF"/>
</svg>
