<svg width="187" height="170" viewBox="0 0 187 170" fill="none" xmlns="http://www.w3.org/2000/svg">
<path d="M157.479 47.1228C151.219 24.56 130.577 8 106.073 8C82.8519 8 63.0998 22.8729 55.7684 43.63C32.9178 44.6188 14.4248 60.0327 14.4248 79.2783C14.4248 99.1778 34.1888 114.977 58.114 114.977H106.045C106.054 114.977 106.064 114.977 106.073 114.977C106.083 114.977 106.093 114.977 106.102 114.977H135.938C149.512 114.977 161.843 111.041 170.805 104.627C179.766 98.2146 185.425 89.266 185.425 79.2783C185.425 69.2905 179.766 60.3419 170.805 53.9293C166.934 51.159 162.435 48.8511 157.479 47.1228Z" fill="white" stroke="#55AAFF" stroke-width="2"/>
<path d="M100.803 79.2783C100.803 98.4419 81.6906 113.977 58.114 113.977C34.5374 113.977 15.4248 98.4419 15.4248 79.2783C15.4248 60.5567 33.6657 45.2982 56.4896 44.6041C57.0286 44.5877 57.5701 44.5795 58.114 44.5795C81.6906 44.5795 100.803 60.1146 100.803 79.2783Z" fill="#55AAFF"/>
<path d="M158.425 61.4885C158.425 90.4771 134.986 113.977 106.073 113.977C77.1606 113.977 53.7221 90.4771 53.7221 61.4885C53.7221 55.5817 54.6953 49.9028 56.4896 44.6041C63.5012 23.8988 83.052 9 106.073 9C134.986 9 158.425 32.4999 158.425 61.4885Z" fill="#55AAFF"/>
<path d="M184.425 79.2783C184.425 98.4419 162.717 113.977 135.938 113.977C109.16 113.977 87.4518 98.4419 87.4518 79.2783C87.4518 60.1146 109.16 44.5795 135.938 44.5795C162.717 44.5795 184.425 60.1146 184.425 79.2783Z" fill="#55AAFF"/>
<path d="M58.114 113.977L94.552 97.3654L135.938 113.977H58.114Z" fill="#55AAFF"/>
<path d="M59.4248 90.8198C59.4248 87.0533 62.5588 84 66.4248 84C70.2908 84 73.4248 87.0533 73.4248 90.8198C73.4248 94.5863 70.2908 88.1332 66.4248 88.1332C62.5588 88.1332 59.4248 94.5863 59.4248 90.8198Z" fill="#55AAFF"/>
<path d="M124.425 90.8198C124.425 87.0533 127.559 84 131.425 84C135.291 84 138.425 87.0533 138.425 90.8198C138.425 94.5863 135.291 88.1332 131.425 88.1332C127.559 88.1332 124.425 94.5863 124.425 90.8198Z" fill="#55AAFF"/>
<path d="M105.425 95.1802C105.425 98.9467 102.291 102 98.4248 102C94.5588 102 91.4248 98.9467 91.4248 95.1802C91.4248 91.4137 94.5588 97.8668 98.4248 97.8668C102.291 97.8668 105.425 91.4137 105.425 95.1802Z" fill="#55AAFF"/>
<path d="M144.479 40.1228C138.219 17.56 117.577 1 93.0735 1C69.8519 1 50.0998 15.8729 42.7684 36.63C19.9178 37.6188 1.4248 53.0327 1.4248 72.2783C1.4248 92.1778 21.1888 107.977 45.114 107.977H93.0446C93.0542 107.977 93.0639 107.977 93.0735 107.977C93.0831 107.977 93.0927 107.977 93.1023 107.977H122.938C136.512 107.977 148.843 104.041 157.805 97.6272C166.766 91.2146 172.425 82.266 172.425 72.2783C172.425 62.2905 166.766 53.3419 157.805 46.9293C153.934 44.159 149.435 41.8511 144.479 40.1228Z" fill="white" stroke="#55AAFF" stroke-width="2"/>
<path d="M87.8032 72.2783C87.8032 91.4419 68.6906 106.977 45.114 106.977C21.5374 106.977 2.4248 91.4419 2.4248 72.2783C2.4248 53.5567 20.6657 38.2982 43.4896 37.6041C44.0286 37.5877 44.5701 37.5795 45.114 37.5795C68.6906 37.5795 87.8032 53.1146 87.8032 72.2783Z" fill="white"/>
<path d="M145.425 54.4885C145.425 83.4771 121.986 106.977 93.0735 106.977C64.1606 106.977 40.7221 83.4771 40.7221 54.4885C40.7221 48.5817 41.6953 42.9028 43.4896 37.6041C50.5012 16.8988 70.052 2 93.0735 2C121.986 2 145.425 25.4999 145.425 54.4885Z" fill="white"/>
<path d="M171.425 72.2783C171.425 91.4419 149.717 106.977 122.938 106.977C96.16 106.977 74.4518 91.4419 74.4518 72.2783C74.4518 53.1146 96.16 37.5795 122.938 37.5795C149.717 37.5795 171.425 53.1146 171.425 72.2783Z" fill="white"/>
<path d="M45.114 106.977L81.552 90.3654L122.938 106.977H45.114Z" fill="white"/>
<path d="M125.425 78.1802C125.425 81.9467 122.291 85 118.425 85C114.559 85 111.425 81.9467 111.425 78.1802C111.425 74.4137 114.559 80.8668 118.425 80.8668C122.291 80.8668 125.425 74.4137 125.425 78.1802Z" fill="#55AAFF"/>
<path d="M60.4248 78.1802C60.4248 81.9467 57.2908 85 53.4248 85C49.5588 85 46.4248 81.9467 46.4248 78.1802C46.4248 74.4137 49.5588 80.8668 53.4248 80.8668C57.2908 80.8668 60.4248 74.4137 60.4248 78.1802Z" fill="#55AAFF"/>
<path d="M78.4248 93.8198C78.4248 90.0533 81.5588 87 85.4248 87C89.2908 87 92.4248 90.0533 92.4248 93.8198C92.4248 97.5863 89.2908 91.1332 85.4248 91.1332C81.5588 91.1332 78.4248 97.5863 78.4248 93.8198Z" fill="#55AAFF"/>
<path d="M123.71 65.8896C124.18 66.705 121.848 68.9331 118.5 70.8661C115.152 72.7991 112.056 73.705 111.585 72.8896C111.114 72.0741 114.635 71.9042 117.983 69.9712C121.331 68.0382 123.239 65.0741 123.71 65.8896Z" fill="#55AAFF"/>
<path d="M59.9768 73.2555C59.506 74.071 56.4102 73.165 53.0622 71.232C49.7141 69.2991 47.3817 67.071 47.8525 66.2555C48.3233 65.4401 50.2308 68.4042 53.5788 70.3372C56.9269 72.2702 60.4476 72.4401 59.9768 73.2555Z" fill="#55AAFF"/>
<rect x="54.4248" y="121" width="3" height="43" rx="1.5" fill="#55AAFF"/>
<rect x="70.8496" y="127" width="3" height="43" rx="1.5" fill="#55AAFF"/>
<rect x="124.85" y="121" width="3" height="43" rx="1.5" fill="#55AAFF"/>
<rect x="108.85" y="133" width="3" height="31" rx="1.5" fill="#55AAFF"/>
<rect x="87.8496" y="121" width="3" height="24" rx="1.5" fill="#55AAFF"/>
</svg>
