<svg width="189" height="200" viewBox="0 0 189 200" fill="none" xmlns="http://www.w3.org/2000/svg">
<g filter="url(#filter0_d)">
<path d="M95.3784 75.2783C95.3784 94.4419 76.2658 109.977 52.6892 109.977C29.1126 109.977 10 94.4419 10 75.2783C10 56.5567 28.2409 41.2982 51.0648 40.6041C51.6038 40.5877 52.1453 40.5795 52.6892 40.5795C76.2658 40.5795 95.3784 56.1146 95.3784 75.2783Z" fill="#B9BFC6"/>
<path d="M153 57.4885C153 86.4771 129.562 109.977 100.649 109.977C71.7358 109.977 48.2973 86.4771 48.2973 57.4885C48.2973 51.5817 49.2705 45.9028 51.0648 40.6041C58.0764 19.8988 77.6272 5 100.649 5C129.562 5 153 28.4999 153 57.4885Z" fill="#B9BFC6"/>
<path d="M179 75.2783C179 94.4419 157.292 109.977 130.514 109.977C103.735 109.977 82.027 94.4419 82.027 75.2783C82.027 56.1146 103.735 40.5795 130.514 40.5795C157.292 40.5795 179 56.1146 179 75.2783Z" fill="#B9BFC6"/>
<path d="M46.8919 109.977L89.1272 93.3654L130.514 109.977H46.8919Z" fill="#B9BFC6"/>
<path d="M57.3832 117.962C57.3832 117.087 58.0903 116.378 58.9626 116.378C59.8349 116.378 60.5421 117.087 60.5421 117.962V167.581C60.5421 168.455 59.8349 169.164 58.9626 169.164C58.0903 169.164 57.3832 168.455 57.3832 167.581V117.962Z" fill="#B9BFC6"/>
<path d="M86.3396 127.991C86.3396 127.117 87.0467 126.408 87.919 126.408C88.7913 126.408 89.4984 127.117 89.4984 127.991V158.079C89.4984 158.954 88.7913 159.663 87.919 159.663C87.0467 159.663 86.3396 158.954 86.3396 158.079V127.991Z" fill="#B9BFC6"/>
<path d="M137.408 117.962C137.408 117.087 138.115 116.378 138.988 116.378C139.86 116.378 140.567 117.087 140.567 117.962V148.05C140.567 148.924 139.86 149.633 138.988 149.633C138.115 149.633 137.408 148.924 137.408 148.05V117.962Z" fill="#B9BFC6"/>
<path d="M114.243 127.991C114.243 127.117 114.95 126.408 115.822 126.408C116.695 126.408 117.402 127.117 117.402 127.991V183.416C117.402 184.291 116.695 185 115.822 185C114.95 185 114.243 184.291 114.243 183.416V127.991Z" fill="#B9BFC6"/>
</g>
<defs>
<filter id="filter0_d" x="0" y="0" width="189" height="200" filterUnits="userSpaceOnUse" color-interpolation-filters="sRGB">
<feFlood flood-opacity="0" result="BackgroundImageFix"/>
<feColorMatrix in="SourceAlpha" type="matrix" values="0 0 0 0 0 0 0 0 0 0 0 0 0 0 0 0 0 0 127 0" result="hardAlpha"/>
<feOffset dy="5"/>
<feGaussianBlur stdDeviation="5"/>
<feComposite in2="hardAlpha" operator="out"/>
<feColorMatrix type="matrix" values="0 0 0 0 0 0 0 0 0 0 0 0 0 0 0 0 0 0 0.25 0"/>
<feBlend mode="normal" in2="BackgroundImageFix" result="effect1_dropShadow"/>
<feBlend mode="normal" in="SourceGraphic" in2="effect1_dropShadow" result="shape"/>
</filter>
</defs>
</svg>
