<svg width="190" height="188" viewBox="0 0 190 188" fill="none" xmlns="http://www.w3.org/2000/svg">
<path d="M88.4248 44C88.4248 68.3005 68.7253 88 44.4248 88C20.1243 88 0.424805 68.3005 0.424805 44C0.424805 19.6995 20.1243 0 44.4248 0C68.7253 0 88.4248 19.6995 88.4248 44Z" fill="#6B6B6B"/>
<path d="M160.479 65.1228C154.219 42.56 133.577 26 109.073 26C85.8519 26 66.0998 40.8729 58.7684 61.63C35.9178 62.6188 17.4248 78.0327 17.4248 97.2783C17.4248 117.178 37.1888 132.977 61.114 132.977H109.045C109.054 132.977 109.064 132.977 109.073 132.977C109.083 132.977 109.093 132.977 109.102 132.977H138.938C152.512 132.977 164.843 129.041 173.805 122.627C182.766 116.215 188.425 107.266 188.425 97.2783C188.425 87.2905 182.766 78.3419 173.805 71.9293C169.934 69.159 165.435 66.8511 160.479 65.1228Z" fill="white" stroke="#55AAFF" stroke-width="2"/>
<path d="M103.803 97.2783C103.803 116.442 84.6906 131.977 61.114 131.977C37.5374 131.977 18.4248 116.442 18.4248 97.2783C18.4248 78.5567 36.6657 63.2982 59.4896 62.6041C60.0286 62.5877 60.5701 62.5795 61.114 62.5795C84.6906 62.5795 103.803 78.1146 103.803 97.2783Z" fill="#55AAFF"/>
<path d="M161.425 79.4885C161.425 108.477 137.986 131.977 109.073 131.977C80.1606 131.977 56.7221 108.477 56.7221 79.4885C56.7221 73.5817 57.6953 67.9028 59.4896 62.6041C66.5012 41.8988 86.052 27 109.073 27C137.986 27 161.425 50.4999 161.425 79.4885Z" fill="#55AAFF"/>
<path d="M187.425 97.2783C187.425 116.442 165.717 131.977 138.938 131.977C112.16 131.977 90.4518 116.442 90.4518 97.2783C90.4518 78.1146 112.16 62.5795 138.938 62.5795C165.717 62.5795 187.425 78.1146 187.425 97.2783Z" fill="#55AAFF"/>
<path d="M61.114 131.977L97.552 115.365L138.938 131.977H61.114Z" fill="#55AAFF"/>
<path d="M62.4248 108.82C62.4248 105.053 65.5588 102 69.4248 102C73.2908 102 76.4248 105.053 76.4248 108.82C76.4248 112.586 73.2908 106.133 69.4248 106.133C65.5588 106.133 62.4248 112.586 62.4248 108.82Z" fill="#55AAFF"/>
<path d="M127.425 108.82C127.425 105.053 130.559 102 134.425 102C138.291 102 141.425 105.053 141.425 108.82C141.425 112.586 138.291 106.133 134.425 106.133C130.559 106.133 127.425 112.586 127.425 108.82Z" fill="#55AAFF"/>
<path d="M108.425 113.18C108.425 116.947 105.291 120 101.425 120C97.5588 120 94.4248 116.947 94.4248 113.18C94.4248 109.414 97.5588 115.867 101.425 115.867C105.291 115.867 108.425 109.414 108.425 113.18Z" fill="#55AAFF"/>
<path d="M147.479 58.1228C141.219 35.56 120.577 19 96.0735 19C72.8519 19 53.0998 33.8729 45.7684 54.63C22.9178 55.6188 4.4248 71.0327 4.4248 90.2783C4.4248 110.178 24.1888 125.977 48.114 125.977H96.0446C96.0542 125.977 96.0639 125.977 96.0735 125.977C96.0831 125.977 96.0927 125.977 96.1023 125.977H125.938C139.512 125.977 151.843 122.041 160.805 115.627C169.766 109.215 175.425 100.266 175.425 90.2783C175.425 80.2905 169.766 71.3419 160.805 64.9293C156.934 62.159 152.435 59.8511 147.479 58.1228Z" fill="white" stroke="#55AAFF" stroke-width="2"/>
<path d="M90.8032 90.2783C90.8032 109.442 71.6906 124.977 48.114 124.977C24.5374 124.977 5.4248 109.442 5.4248 90.2783C5.4248 71.5567 23.6657 56.2982 46.4896 55.6041C47.0286 55.5877 47.5701 55.5795 48.114 55.5795C71.6906 55.5795 90.8032 71.1146 90.8032 90.2783Z" fill="white"/>
<path d="M148.425 72.4885C148.425 101.477 124.986 124.977 96.0735 124.977C67.1606 124.977 43.7221 101.477 43.7221 72.4885C43.7221 66.5817 44.6953 60.9028 46.4896 55.6041C53.5012 34.8988 73.052 20 96.0735 20C124.986 20 148.425 43.4999 148.425 72.4885Z" fill="white"/>
<path d="M174.425 90.2783C174.425 109.442 152.717 124.977 125.938 124.977C99.16 124.977 77.4518 109.442 77.4518 90.2783C77.4518 71.1146 99.16 55.5795 125.938 55.5795C152.717 55.5795 174.425 71.1146 174.425 90.2783Z" fill="white"/>
<path d="M48.114 124.977L84.552 108.365L125.938 124.977H48.114Z" fill="white"/>
<path d="M128.425 96.1802C128.425 99.9467 125.291 103 121.425 103C117.559 103 114.425 99.9467 114.425 96.1802C114.425 92.4137 117.559 98.8668 121.425 98.8668C125.291 98.8668 128.425 92.4137 128.425 96.1802Z" fill="#55AAFF"/>
<path d="M63.4248 96.1802C63.4248 99.9467 60.2908 103 56.4248 103C52.5588 103 49.4248 99.9467 49.4248 96.1802C49.4248 92.4137 52.5588 98.8668 56.4248 98.8668C60.2908 98.8668 63.4248 92.4137 63.4248 96.1802Z" fill="#55AAFF"/>
<path d="M81.4248 111.82C81.4248 108.053 84.5588 105 88.4248 105C92.2908 105 95.4248 108.053 95.4248 111.82C95.4248 115.586 92.2908 109.133 88.4248 109.133C84.5588 109.133 81.4248 115.586 81.4248 111.82Z" fill="#55AAFF"/>
<path d="M126.71 83.8896C127.18 84.705 124.848 86.9331 121.5 88.8661C118.152 90.7991 115.056 91.705 114.585 90.8896C114.114 90.0741 117.635 89.9042 120.983 87.9712C124.331 86.0382 126.239 83.0741 126.71 83.8896Z" fill="#55AAFF"/>
<path d="M62.9768 91.2555C62.506 92.071 59.4102 91.165 56.0622 89.232C52.7141 87.2991 50.3817 85.071 50.8525 84.2555C51.3233 83.4401 53.2308 86.4042 56.5788 88.3372C59.9269 90.2702 63.4476 90.4401 62.9768 91.2555Z" fill="#55AAFF"/>
<rect x="57.4248" y="139" width="3" height="43" rx="1.5" fill="#55AAFF"/>
<rect x="73.8496" y="145" width="3" height="43" rx="1.5" fill="#55AAFF"/>
<rect x="127.85" y="139" width="3" height="43" rx="1.5" fill="#55AAFF"/>
<rect x="111.85" y="151" width="3" height="31" rx="1.5" fill="#55AAFF"/>
<rect x="90.8496" y="139" width="3" height="24" rx="1.5" fill="#55AAFF"/>
</svg>
