<svg width="189" height="186" viewBox="0 0 189 186" fill="none" xmlns="http://www.w3.org/2000/svg">
<g filter="url(#filter0_d)">
<path d="M68.5 127.75L97.5 98.75H119L90 127.75L104.5 139.75L50 170.25L80.5 139.75L68.5 127.75Z" fill="#F4E237"/>
</g>
<g filter="url(#filter1_d)">
<path d="M95.3784 76.0283C95.3784 95.1919 76.2658 110.727 52.6892 110.727C29.1126 110.727 10 95.1919 10 76.0283C10 57.3067 28.2409 42.0482 51.0648 41.3541C51.6038 41.3377 52.1453 41.3295 52.6892 41.3295C76.2658 41.3295 95.3784 56.8646 95.3784 76.0283Z" fill="#B9BFC5"/>
<path d="M153 58.2385C153 87.2271 129.562 110.727 100.649 110.727C71.7358 110.727 48.2973 87.2271 48.2973 58.2385C48.2973 52.3317 49.2705 46.6528 51.0648 41.3541C58.0764 20.6488 77.6272 5.75 100.649 5.75C129.562 5.75 153 29.2499 153 58.2385Z" fill="#B9BFC5"/>
<path d="M179 76.0283C179 95.1919 157.292 110.727 130.514 110.727C103.735 110.727 82.027 95.1919 82.027 76.0283C82.027 56.8646 103.735 41.3295 130.514 41.3295C157.292 41.3295 179 56.8646 179 76.0283Z" fill="#B9BFC5"/>
<path d="M46.8919 110.727L89.1272 94.1154L130.514 110.727H46.8919Z" fill="#B9BFC5"/>
</g>
<defs>
<filter id="filter0_d" x="40" y="93.75" width="89" height="91.5" filterUnits="userSpaceOnUse" color-interpolation-filters="sRGB">
<feFlood flood-opacity="0" result="BackgroundImageFix"/>
<feColorMatrix in="SourceAlpha" type="matrix" values="0 0 0 0 0 0 0 0 0 0 0 0 0 0 0 0 0 0 127 0" result="hardAlpha"/>
<feOffset dy="5"/>
<feGaussianBlur stdDeviation="5"/>
<feComposite in2="hardAlpha" operator="out"/>
<feColorMatrix type="matrix" values="0 0 0 0 0 0 0 0 0 0 0 0 0 0 0 0 0 0 0.25 0"/>
<feBlend mode="normal" in2="BackgroundImageFix" result="effect1_dropShadow"/>
<feBlend mode="normal" in="SourceGraphic" in2="effect1_dropShadow" result="shape"/>
</filter>
<filter id="filter1_d" x="0" y="0.75" width="189" height="124.977" filterUnits="userSpaceOnUse" color-interpolation-filters="sRGB">
<feFlood flood-opacity="0" result="BackgroundImageFix"/>
<feColorMatrix in="SourceAlpha" type="matrix" values="0 0 0 0 0 0 0 0 0 0 0 0 0 0 0 0 0 0 127 0" result="hardAlpha"/>
<feOffset dy="5"/>
<feGaussianBlur stdDeviation="5"/>
<feComposite in2="hardAlpha" operator="out"/>
<feColorMatrix type="matrix" values="0 0 0 0 0 0 0 0 0 0 0 0 0 0 0 0 0 0 0.25 0"/>
<feBlend mode="normal" in2="BackgroundImageFix" result="effect1_dropShadow"/>
<feBlend mode="normal" in="SourceGraphic" in2="effect1_dropShadow" result="shape"/>
</filter>
</defs>
</svg>
