<svg width="187" height="168" viewBox="0 0 187 168" fill="none" xmlns="http://www.w3.org/2000/svg">
<path d="M67.9248 120.75L83.9248 95.75H104.925L87.4248 120.75L104.925 136.75L53.4248 167.25L83.9248 136.75L67.9248 120.75Z" fill="#F4E237"/>
<path d="M157.479 47.8728C151.219 25.31 130.577 8.75 106.073 8.75C82.8519 8.75 63.0998 23.6229 55.7684 44.38C32.9178 45.3688 14.4248 60.7827 14.4248 80.0283C14.4248 99.9278 34.1888 115.727 58.114 115.727H106.045C106.054 115.727 106.064 115.727 106.073 115.727C106.083 115.727 106.093 115.727 106.102 115.727H135.938C149.512 115.727 161.843 111.791 170.805 105.377C179.766 98.9646 185.425 90.016 185.425 80.0283C185.425 70.0405 179.766 61.0919 170.805 54.6793C166.934 51.909 162.435 49.6011 157.479 47.8728Z" fill="#DDDDDD" stroke="#55AAFF" stroke-width="2"/>
<path d="M100.803 80.0283C100.803 99.1919 81.6906 114.727 58.114 114.727C34.5374 114.727 15.4248 99.1919 15.4248 80.0283C15.4248 61.3067 33.6657 46.0482 56.4896 45.3541C57.0286 45.3377 57.5701 45.3295 58.114 45.3295C81.6906 45.3295 100.803 60.8646 100.803 80.0283Z" fill="#55AAFF"/>
<path d="M158.425 62.2385C158.425 91.2271 134.986 114.727 106.073 114.727C77.1606 114.727 53.7221 91.2271 53.7221 62.2385C53.7221 56.3317 54.6953 50.6528 56.4896 45.3541C63.5012 24.6488 83.052 9.75 106.073 9.75C134.986 9.75 158.425 33.2499 158.425 62.2385Z" fill="#55AAFF"/>
<path d="M184.425 80.0283C184.425 99.1919 162.717 114.727 135.938 114.727C109.16 114.727 87.4518 99.1919 87.4518 80.0283C87.4518 60.8646 109.16 45.3295 135.938 45.3295C162.717 45.3295 184.425 60.8646 184.425 80.0283Z" fill="#55AAFF"/>
<path d="M58.114 114.727L94.552 98.1154L135.938 114.727H58.114Z" fill="#55AAFF"/>
<path d="M59.4248 91.5698C59.4248 87.8033 62.5588 84.75 66.4248 84.75C70.2908 84.75 73.4248 87.8033 73.4248 91.5698C73.4248 95.3363 70.2908 88.8832 66.4248 88.8832C62.5588 88.8832 59.4248 95.3363 59.4248 91.5698Z" fill="#55AAFF"/>
<path d="M124.425 91.5698C124.425 87.8033 127.559 84.75 131.425 84.75C135.291 84.75 138.425 87.8033 138.425 91.5698C138.425 95.3363 135.291 88.8832 131.425 88.8832C127.559 88.8832 124.425 95.3363 124.425 91.5698Z" fill="#55AAFF"/>
<path d="M105.425 95.9302C105.425 99.6967 102.291 102.75 98.4248 102.75C94.5588 102.75 91.4248 99.6967 91.4248 95.9302C91.4248 92.1637 94.5588 98.6168 98.4248 98.6168C102.291 98.6168 105.425 92.1637 105.425 95.9302Z" fill="#55AAFF"/>
<path d="M144.479 40.8728C138.219 18.31 117.577 1.75 93.0735 1.75C69.8519 1.75 50.0998 16.6229 42.7684 37.38C19.9178 38.3688 1.4248 53.7827 1.4248 73.0283C1.4248 92.9278 21.1888 108.727 45.114 108.727H93.0446C93.0542 108.727 93.0639 108.727 93.0735 108.727C93.0831 108.727 93.0927 108.727 93.1023 108.727H122.938C136.512 108.727 148.843 104.791 157.805 98.3772C166.766 91.9646 172.425 83.016 172.425 73.0283C172.425 63.0405 166.766 54.0919 157.805 47.6793C153.934 44.909 149.435 42.6011 144.479 40.8728Z" fill="#DDDDDD" stroke="#55AAFF" stroke-width="2"/>
<path d="M87.8032 73.0283C87.8032 92.1919 68.6906 107.727 45.114 107.727C21.5374 107.727 2.4248 92.1919 2.4248 73.0283C2.4248 54.3067 20.6657 39.0482 43.4896 38.3541C44.0286 38.3377 44.5701 38.3295 45.114 38.3295C68.6906 38.3295 87.8032 53.8646 87.8032 73.0283Z" fill="white"/>
<path d="M145.425 55.2385C145.425 84.2271 121.986 107.727 93.0735 107.727C64.1606 107.727 40.7221 84.2271 40.7221 55.2385C40.7221 49.3317 41.6953 43.6528 43.4896 38.3541C50.5012 17.6488 70.052 2.75 93.0735 2.75C121.986 2.75 145.425 26.2499 145.425 55.2385Z" fill="white"/>
<path d="M171.425 73.0283C171.425 92.1919 149.717 107.727 122.938 107.727C96.16 107.727 74.4518 92.1919 74.4518 73.0283C74.4518 53.8646 96.16 38.3295 122.938 38.3295C149.717 38.3295 171.425 53.8646 171.425 73.0283Z" fill="white"/>
<path d="M45.114 107.727L81.552 91.1154L122.938 107.727H45.114Z" fill="white"/>
<path d="M125.425 78.9302C125.425 82.6967 122.291 85.75 118.425 85.75C114.559 85.75 111.425 82.6967 111.425 78.9302C111.425 75.1637 114.559 81.6168 118.425 81.6168C122.291 81.6168 125.425 75.1637 125.425 78.9302Z" fill="#55AAFF"/>
<path d="M60.4248 78.9302C60.4248 82.6967 57.2908 85.75 53.4248 85.75C49.5588 85.75 46.4248 82.6967 46.4248 78.9302C46.4248 75.1637 49.5588 81.6168 53.4248 81.6168C57.2908 81.6168 60.4248 75.1637 60.4248 78.9302Z" fill="#55AAFF"/>
<path d="M78.4248 94.5698C78.4248 90.8033 81.5588 87.75 85.4248 87.75C89.2908 87.75 92.4248 90.8033 92.4248 94.5698C92.4248 98.3363 89.2908 91.8832 85.4248 91.8832C81.5588 91.8832 78.4248 98.3363 78.4248 94.5698Z" fill="#55AAFF"/>
<path d="M122.451 65.3018C123.117 65.9676 121.441 68.7235 118.707 71.4571C115.973 74.1908 113.217 75.8671 112.552 75.2013C111.886 74.5355 115.243 73.4602 117.976 70.7265C120.71 67.9928 121.785 64.636 122.451 65.3018Z" fill="#55AAFF"/>
<path d="M59.0104 75.5674C58.3446 76.2332 55.5888 74.5569 52.8551 71.8232C50.1214 69.0895 48.4451 66.3337 49.1109 65.6679C49.7768 65.002 50.8521 68.3589 53.5858 71.0925C56.3194 73.8262 59.6763 74.9015 59.0104 75.5674Z" fill="#55AAFF"/>
</svg>
