<svg width="141" height="140" viewBox="0 0 141 140" fill="none" xmlns="http://www.w3.org/2000/svg">
<g filter="url(#filter0_d)">
<path d="M71.5 21.75V65M71.5 21.75V122.75V108.25M71.5 21.75L57 7.25M71.5 21.75L86 7.25M71.5 21.75V7.25M71.5 108.25V65M71.5 108.25L57 122.75M71.5 108.25L86 122.75M71.5 65H86M71.5 65H57M86 65L106 45M86 65L106 85M57 65L37 45M57 65L37 85M57 65L29.5 92.5L37 85M37 45V21.75M37 45H12M37 45L29.5 37.5M37 85V108.25M37 85H12M106 45V21.75M106 45L113.5 37.5M106 45H129.25M106 85V108.25M106 85L113.5 92.5M106 85H129.25" stroke="#B9BFC6" stroke-width="3" stroke-linecap="round" stroke-linejoin="round"/>
</g>
<defs>
<filter id="filter0_d" x="0.5" y="0.75" width="140.25" height="138.5" filterUnits="userSpaceOnUse" color-interpolation-filters="sRGB">
<feFlood flood-opacity="0" result="BackgroundImageFix"/>
<feColorMatrix in="SourceAlpha" type="matrix" values="0 0 0 0 0 0 0 0 0 0 0 0 0 0 0 0 0 0 127 0" result="hardAlpha"/>
<feOffset dy="5"/>
<feGaussianBlur stdDeviation="5"/>
<feComposite in2="hardAlpha" operator="out"/>
<feColorMatrix type="matrix" values="0 0 0 0 0 0 0 0 0 0 0 0 0 0 0 0 0 0 0.25 0"/>
<feBlend mode="normal" in2="BackgroundImageFix" result="effect1_dropShadow"/>
<feBlend mode="normal" in="SourceGraphic" in2="effect1_dropShadow" result="shape"/>
</filter>
</defs>
</svg>
