<svg width="122" height="120" viewBox="0 0 122 120" fill="none" xmlns="http://www.w3.org/2000/svg">
<path d="M61.9248 16.75V60M61.9248 16.75V117.75V103.25M61.9248 16.75L47.4248 2.25M61.9248 16.75L76.4248 2.25M61.9248 16.75V2.25M61.9248 103.25V60M61.9248 103.25L47.4248 117.75M61.9248 103.25L76.4248 117.75M61.9248 60H76.4248M61.9248 60H47.4248M76.4248 60L96.4248 40M76.4248 60L96.4248 80M47.4248 60L27.4248 40M47.4248 60L27.4248 80M47.4248 60L19.9248 87.5L27.4248 80M27.4248 40V16.75M27.4248 40H2.4248M27.4248 40L19.9248 32.5M27.4248 80V103.25M27.4248 80H2.4248M96.4248 40V16.75M96.4248 40L103.925 32.5M96.4248 40H119.675M96.4248 80V103.25M96.4248 80L103.925 87.5M96.4248 80H119.675" stroke="#B9BFC6" stroke-width="3" stroke-linecap="round" stroke-linejoin="round"/>
</svg>
