<svg width="141" height="140" viewBox="0 0 141 140" fill="none" xmlns="http://www.w3.org/2000/svg">
<g filter="url(#filter0_d)">
<path d="M71.75 21.75V65M71.75 21.75V122.75V108.25M71.75 21.75L57.25 7.25M71.75 21.75L86.25 7.25M71.75 21.75V7.25M71.75 108.25V65M71.75 108.25L57.25 122.75M71.75 108.25L86.25 122.75M71.75 65H86.25M71.75 65H57.25M86.25 65L106.25 45M86.25 65L106.25 85M57.25 65L37.25 45M57.25 65L37.25 85M57.25 65L29.75 92.5L37.25 85M37.25 45V21.75M37.25 45H12.25M37.25 45L29.75 37.5M37.25 85V108.25M37.25 85H12.25M106.25 45V21.75M106.25 45L113.75 37.5M106.25 45H129.5M106.25 85V108.25M106.25 85L113.75 92.5M106.25 85H129.5" stroke="#B9BFC6" stroke-width="3" stroke-linecap="round" stroke-linejoin="round"/>
</g>
<defs>
<filter id="filter0_d" x="0.75" y="0.75" width="140.25" height="138.5" filterUnits="userSpaceOnUse" color-interpolation-filters="sRGB">
<feFlood flood-opacity="0" result="BackgroundImageFix"/>
<feColorMatrix in="SourceAlpha" type="matrix" values="0 0 0 0 0 0 0 0 0 0 0 0 0 0 0 0 0 0 127 0" result="hardAlpha"/>
<feOffset dy="5"/>
<feGaussianBlur stdDeviation="5"/>
<feComposite in2="hardAlpha" operator="out"/>
<feColorMatrix type="matrix" values="0 0 0 0 0 0 0 0 0 0 0 0 0 0 0 0 0 0 0.25 0"/>
<feBlend mode="normal" in2="BackgroundImageFix" result="effect1_dropShadow"/>
<feBlend mode="normal" in="SourceGraphic" in2="effect1_dropShadow" result="shape"/>
</filter>
</defs>
</svg>
