<svg width="188" height="189" viewBox="0 0 188 189" fill="none" xmlns="http://www.w3.org/2000/svg">
<path d="M158.054 82.6228C151.794 60.06 131.152 43.5 106.649 43.5C83.4271 43.5 63.675 58.3729 56.3436 79.13C33.493 80.1188 15 95.5327 15 114.778C15 134.678 34.764 150.477 58.6892 150.477H106.62C106.629 150.477 106.639 150.477 106.649 150.477C106.658 150.477 106.668 150.477 106.677 150.477H136.514C150.087 150.477 162.418 146.541 171.381 140.127C180.341 133.715 186 124.766 186 114.778C186 104.791 180.341 95.8419 171.381 89.4293C167.51 86.659 163.01 84.3511 158.054 82.6228Z" fill="white" stroke="#55AAFF" stroke-width="2"/>
<path d="M101.378 114.778C101.378 133.942 82.2658 149.477 58.6892 149.477C35.1126 149.477 16 133.942 16 114.778C16 96.0567 34.2409 80.7982 57.0648 80.1041C57.6038 80.0877 58.1453 80.0795 58.6892 80.0795C82.2658 80.0795 101.378 95.6146 101.378 114.778Z" fill="#55AAFF"/>
<path d="M159 96.9885C159 125.977 135.562 149.477 106.649 149.477C77.7358 149.477 54.2973 125.977 54.2973 96.9885C54.2973 91.0817 55.2705 85.4028 57.0648 80.1041C64.0764 59.3988 83.6272 44.5 106.649 44.5C135.562 44.5 159 67.9999 159 96.9885Z" fill="#55AAFF"/>
<path d="M185 114.778C185 133.942 163.292 149.477 136.514 149.477C109.735 149.477 88.027 133.942 88.027 114.778C88.027 95.6146 109.735 80.0795 136.514 80.0795C163.292 80.0795 185 95.6146 185 114.778Z" fill="#55AAFF"/>
<path d="M58.6892 149.477L95.1272 132.865L136.514 149.477H58.6892Z" fill="#55AAFF"/>
<path d="M60 126.32C60 122.553 63.134 119.5 67 119.5C70.866 119.5 74 122.553 74 126.32C74 130.086 70.866 123.633 67 123.633C63.134 123.633 60 130.086 60 126.32Z" fill="#55AAFF"/>
<path d="M125 126.32C125 122.553 128.134 119.5 132 119.5C135.866 119.5 139 122.553 139 126.32C139 130.086 135.866 123.633 132 123.633C128.134 123.633 125 130.086 125 126.32Z" fill="#55AAFF"/>
<path d="M106 130.68C106 134.447 102.866 137.5 99 137.5C95.134 137.5 92 134.447 92 130.68C92 126.914 95.134 133.367 99 133.367C102.866 133.367 106 126.914 106 130.68Z" fill="#55AAFF"/>
<path d="M145.054 75.6228C138.794 53.06 118.152 36.5 93.6487 36.5C70.4271 36.5 50.675 51.3729 43.3436 72.13C20.493 73.1188 2 88.5327 2 107.778C2 127.678 21.764 143.477 45.6892 143.477H93.6198C93.6294 143.477 93.639 143.477 93.6487 143.477C93.6583 143.477 93.6679 143.477 93.6775 143.477H123.514C137.087 143.477 149.418 139.541 158.381 133.127C167.341 126.715 173 117.766 173 107.778C173 97.7905 167.341 88.8419 158.381 82.4293C154.51 79.659 150.01 77.3511 145.054 75.6228Z" fill="white" stroke="#55AAFF" stroke-width="2"/>
<path d="M88.3784 107.778C88.3784 126.942 69.2658 142.477 45.6892 142.477C22.1126 142.477 3 126.942 3 107.778C3 89.0567 21.2409 73.7982 44.0648 73.1041C44.6038 73.0877 45.1453 73.0795 45.6892 73.0795C69.2658 73.0795 88.3784 88.6146 88.3784 107.778Z" fill="white"/>
<path d="M146 89.9885C146 118.977 122.562 142.477 93.6487 142.477C64.7358 142.477 41.2973 118.977 41.2973 89.9885C41.2973 84.0817 42.2705 78.4028 44.0648 73.1041C51.0764 52.3988 70.6272 37.5 93.6487 37.5C122.562 37.5 146 60.9999 146 89.9885Z" fill="white"/>
<path d="M172 107.778C172 126.942 150.292 142.477 123.514 142.477C96.7352 142.477 75.027 126.942 75.027 107.778C75.027 88.6146 96.7352 73.0795 123.514 73.0795C150.292 73.0795 172 88.6146 172 107.778Z" fill="white"/>
<path d="M45.6892 142.477L82.1272 125.865L123.514 142.477H45.6892Z" fill="white"/>
<path d="M47 119.32C47 115.553 50.134 112.5 54 112.5C57.866 112.5 61 115.553 61 119.32C61 123.086 57.866 116.633 54 116.633C50.134 116.633 47 123.086 47 119.32Z" fill="#55AAFF"/>
<path d="M112 119.32C112 115.553 115.134 112.5 119 112.5C122.866 112.5 126 115.553 126 119.32C126 123.086 122.866 116.633 119 116.633C115.134 116.633 112 123.086 112 119.32Z" fill="#55AAFF"/>
<path d="M93 123.68C93 127.447 89.866 130.5 86 130.5C82.134 130.5 79 127.447 79 123.68C79 119.914 82.134 126.367 86 126.367C89.866 126.367 93 119.914 93 123.68Z" fill="#55AAFF"/>
</svg>
