<svg width="186" height="195" viewBox="0 0 186 195" fill="none" xmlns="http://www.w3.org/2000/svg">
<path d="M14 158.278C14 178.178 33.764 193.977 57.6892 193.977H105.62C105.629 193.977 105.639 193.977 105.649 193.977C105.658 193.977 105.668 193.977 105.677 193.977H135.514C149.087 193.977 161.418 190.041 170.381 183.627C179.341 177.215 185 168.266 185 158.278C185 148.291 179.341 139.342 170.381 132.929C166.51 130.159 162.01 127.851 157.054 126.123C150.794 103.56 130.152 87 105.649 87C82.4271 87 62.675 101.873 55.3436 122.63C32.493 123.619 14 139.033 14 158.278Z" fill="white" stroke="#55AAFF" stroke-width="2"/>
<path d="M100.378 158.278C100.378 177.442 81.2658 192.977 57.6892 192.977C34.1126 192.977 15 177.442 15 158.278C15 139.557 33.2409 124.298 56.0648 123.604C56.6038 123.588 57.1453 123.579 57.6892 123.579C81.2658 123.579 100.378 139.115 100.378 158.278Z" fill="#55AAFF"/>
<path d="M158 140.489C158 169.477 134.562 192.977 105.649 192.977C76.7358 192.977 53.2973 169.477 53.2973 140.489C53.2973 134.582 54.2705 128.903 56.0648 123.604C63.0764 102.899 82.6272 88 105.649 88C134.562 88 158 111.5 158 140.489Z" fill="#55AAFF"/>
<path d="M184 158.278C184 177.442 162.292 192.977 135.514 192.977C108.735 192.977 87.027 177.442 87.027 158.278C87.027 139.115 108.735 123.579 135.514 123.579C162.292 123.579 184 139.115 184 158.278Z" fill="#55AAFF"/>
<path d="M57.6892 192.977L94.1272 176.365L135.514 192.977H57.6892Z" fill="#55AAFF"/>
<path d="M59 169.82C59 166.053 62.134 163 66 163C69.866 163 73 166.053 73 169.82C73 173.586 69.866 167.133 66 167.133C62.134 167.133 59 173.586 59 169.82Z" fill="#55AAFF"/>
<path d="M124 169.82C124 166.053 127.134 163 131 163C134.866 163 138 166.053 138 169.82C138 173.586 134.866 167.133 131 167.133C127.134 167.133 124 173.586 124 169.82Z" fill="#55AAFF"/>
<path d="M105 174.18C105 177.947 101.866 181 98 181C94.134 181 91 177.947 91 174.18C91 170.414 94.134 176.867 98 176.867C101.866 176.867 105 170.414 105 174.18Z" fill="#55AAFF"/>
<path d="M1 151.278C1 171.178 20.764 186.977 44.6892 186.977H92.6198C92.6294 186.977 92.639 186.977 92.6487 186.977C92.6583 186.977 92.6679 186.977 92.6775 186.977H122.514C136.087 186.977 148.418 183.041 157.381 176.627C166.341 170.215 172 161.266 172 151.278C172 141.291 166.341 132.342 157.381 125.929C153.51 123.159 149.01 120.851 144.054 119.123C137.794 96.5599 117.152 80 92.6487 80C69.4271 80 49.675 94.8729 42.3436 115.63C19.493 116.619 1 132.033 1 151.278Z" fill="white" stroke="#55AAFF" stroke-width="2"/>
<path d="M87.3784 151.278C87.3784 170.442 68.2658 185.977 44.6892 185.977C21.1126 185.977 2 170.442 2 151.278C2 132.557 20.2409 117.298 43.0648 116.604C43.6038 116.588 44.1453 116.579 44.6892 116.579C68.2658 116.579 87.3784 132.115 87.3784 151.278Z" fill="white"/>
<path d="M145 133.489C145 162.477 121.562 185.977 92.6487 185.977C63.7358 185.977 40.2973 162.477 40.2973 133.489C40.2973 127.582 41.2705 121.903 43.0648 116.604C50.0764 95.8988 69.6272 81 92.6487 81C121.562 81 145 104.5 145 133.489Z" fill="white"/>
<path d="M171 151.278C171 170.442 149.292 185.977 122.514 185.977C95.7352 185.977 74.027 170.442 74.027 151.278C74.027 132.115 95.7352 116.579 122.514 116.579C149.292 116.579 171 132.115 171 151.278Z" fill="white"/>
<path d="M44.6892 185.977L81.1272 169.365L122.514 185.977H44.6892Z" fill="white"/>
<path d="M46 162.82C46 159.053 49.134 156 53 156C56.866 156 60 159.053 60 162.82C60 166.586 56.866 160.133 53 160.133C49.134 160.133 46 166.586 46 162.82Z" fill="#55AAFF"/>
<path d="M111 162.82C111 159.053 114.134 156 118 156C121.866 156 125 159.053 125 162.82C125 166.586 121.866 160.133 118 160.133C114.134 160.133 111 166.586 111 162.82Z" fill="#55AAFF"/>
<path d="M92 167.18C92 170.947 88.866 174 85 174C81.134 174 78 170.947 78 167.18C78 163.414 81.134 169.867 85 169.867C88.866 169.867 92 163.414 92 167.18Z" fill="#55AAFF"/>
<path d="M39.0938 16.3164C38.9609 18.1523 38.2812 19.5977 37.0547 20.6523C35.8359 21.707 34.2266 22.2344 32.2266 22.2344C30.0391 22.2344 28.3164 21.5 27.0586 20.0312C25.8086 18.5547 25.1836 16.5312 25.1836 13.9609V12.918C25.1836 11.2773 25.4727 9.83203 26.0508 8.58203C26.6289 7.33203 27.4531 6.375 28.5234 5.71094C29.6016 5.03906 30.8516 4.70312 32.2734 4.70312C34.2422 4.70312 35.8281 5.23047 37.0312 6.28516C38.2344 7.33984 38.9297 8.82031 39.1172 10.7266H35.6016C35.5156 9.625 35.207 8.82812 34.6758 8.33594C34.1523 7.83594 33.3516 7.58594 32.2734 7.58594C31.1016 7.58594 30.2227 8.00781 29.6367 8.85156C29.0586 9.6875 28.7617 10.9883 28.7461 12.7539V14.043C28.7461 15.8867 29.0234 17.2344 29.5781 18.0859C30.1406 18.9375 31.0234 19.3633 32.2266 19.3633C33.3125 19.3633 34.1211 19.1172 34.6523 18.625C35.1914 18.125 35.5 17.3555 35.5781 16.3164H39.0938ZM44.7539 22H41.3555V4H44.7539V22ZM47.0273 15.543C47.0273 14.2852 47.2695 13.1641 47.7539 12.1797C48.2383 11.1953 48.9336 10.4336 49.8398 9.89453C50.7539 9.35547 51.8125 9.08594 53.0156 9.08594C54.7266 9.08594 56.1211 9.60938 57.1992 10.6562C58.2852 11.7031 58.8906 13.125 59.0156 14.9219L59.0391 15.7891C59.0391 17.7344 58.4961 19.2969 57.4102 20.4766C56.3242 21.6484 54.8672 22.2344 53.0391 22.2344C51.2109 22.2344 49.75 21.6484 48.6562 20.4766C47.5703 19.3047 47.0273 17.7109 47.0273 15.6953V15.543ZM50.4141 15.7891C50.4141 16.9922 50.6406 17.9141 51.0938 18.5547C51.5469 19.1875 52.1953 19.5039 53.0391 19.5039C53.8594 19.5039 54.5 19.1914 54.9609 18.5664C55.4219 17.9336 55.6523 16.9258 55.6523 15.543C55.6523 14.3633 55.4219 13.4492 54.9609 12.8008C54.5 12.1523 53.8516 11.8281 53.0156 11.8281C52.1875 11.8281 51.5469 12.1523 51.0938 12.8008C50.6406 13.4414 50.4141 14.4375 50.4141 15.7891ZM68.7188 20.7109C67.8828 21.7266 66.7266 22.2344 65.25 22.2344C63.8906 22.2344 62.8516 21.8438 62.1328 21.0625C61.4219 20.2812 61.0586 19.1367 61.043 17.6289V9.32031H64.4297V17.5117C64.4297 18.832 65.0312 19.4922 66.2344 19.4922C67.3828 19.4922 68.1719 19.0938 68.6016 18.2969V9.32031H72V22H68.8125L68.7188 20.7109ZM74.0273 15.5664C74.0273 13.5898 74.4688 12.0156 75.3516 10.8438C76.2422 9.67188 77.457 9.08594 78.9961 9.08594C80.2305 9.08594 81.25 9.54688 82.0547 10.4688V4H85.4531V22H82.3945L82.2305 20.6523C81.3867 21.707 80.3008 22.2344 78.9727 22.2344C77.4805 22.2344 76.2812 21.6484 75.375 20.4766C74.4766 19.2969 74.0273 17.6602 74.0273 15.5664ZM77.4141 15.8125C77.4141 17 77.6211 17.9102 78.0352 18.543C78.4492 19.1758 79.0508 19.4922 79.8398 19.4922C80.8867 19.4922 81.625 19.0508 82.0547 18.168V13.1641C81.6328 12.2812 80.9023 11.8398 79.8633 11.8398C78.2305 11.8398 77.4141 13.1641 77.4141 15.8125ZM92.8125 17.207L95.1562 9.32031H98.7891L93.6914 23.9688L93.4102 24.6367C92.6523 26.293 91.4023 27.1211 89.6602 27.1211C89.168 27.1211 88.668 27.0469 88.1602 26.8984V24.332L88.6758 24.3438C89.3164 24.3438 89.793 24.2461 90.1055 24.0508C90.4258 23.8555 90.6758 23.5312 90.8555 23.0781L91.2539 22.0352L86.8125 9.32031H90.457L92.8125 17.207ZM111.375 19.5039C112 19.5039 112.508 19.332 112.898 18.9883C113.289 18.6445 113.492 18.1875 113.508 17.6172H116.684C116.676 18.4766 116.441 19.2656 115.98 19.9844C115.52 20.6953 114.887 21.25 114.082 21.6484C113.285 22.0391 112.402 22.2344 111.434 22.2344C109.621 22.2344 108.191 21.6602 107.145 20.5117C106.098 19.3555 105.574 17.7617 105.574 15.7305V15.5078C105.574 13.5547 106.094 11.9961 107.133 10.832C108.172 9.66797 109.598 9.08594 111.41 9.08594C112.996 9.08594 114.266 9.53906 115.219 10.4453C116.18 11.3438 116.668 12.543 116.684 14.043H113.508C113.492 13.3867 113.289 12.8555 112.898 12.4492C112.508 12.0352 111.992 11.8281 111.352 11.8281C110.562 11.8281 109.965 12.1172 109.559 12.6953C109.16 13.2656 108.961 14.1953 108.961 15.4844V15.8359C108.961 17.1406 109.16 18.0781 109.559 18.6484C109.957 19.2188 110.562 19.5039 111.375 19.5039ZM125.965 22C125.809 21.6953 125.695 21.3164 125.625 20.8633C124.805 21.7773 123.738 22.2344 122.426 22.2344C121.184 22.2344 120.152 21.875 119.332 21.1562C118.52 20.4375 118.113 19.5312 118.113 18.4375C118.113 17.0938 118.609 16.0625 119.602 15.3438C120.602 14.625 122.043 14.2617 123.926 14.2539H125.484V13.5273C125.484 12.9414 125.332 12.4727 125.027 12.1211C124.73 11.7695 124.258 11.5938 123.609 11.5938C123.039 11.5938 122.59 11.7305 122.262 12.0039C121.941 12.2773 121.781 12.6523 121.781 13.1289H118.395C118.395 12.3945 118.621 11.7148 119.074 11.0898C119.527 10.4648 120.168 9.97656 120.996 9.625C121.824 9.26562 122.754 9.08594 123.785 9.08594C125.348 9.08594 126.586 9.48047 127.5 10.2695C128.422 11.0508 128.883 12.1523 128.883 13.5742V19.0703C128.891 20.2734 129.059 21.1836 129.387 21.8008V22H125.965ZM123.164 19.6445C123.664 19.6445 124.125 19.5352 124.547 19.3164C124.969 19.0898 125.281 18.7891 125.484 18.4141V16.2344H124.219C122.523 16.2344 121.621 16.8203 121.512 17.9922L121.5 18.1914C121.5 18.6133 121.648 18.9609 121.945 19.2344C122.242 19.5078 122.648 19.6445 123.164 19.6445ZM134.602 9.32031L134.707 10.7852C135.613 9.65234 136.828 9.08594 138.352 9.08594C139.695 9.08594 140.695 9.48047 141.352 10.2695C142.008 11.0586 142.344 12.2383 142.359 13.8086V22H138.973V13.8906C138.973 13.1719 138.816 12.6523 138.504 12.332C138.191 12.0039 137.672 11.8398 136.945 11.8398C135.992 11.8398 135.277 12.2461 134.801 13.0586V22H131.414V9.32031H134.602ZM144.504 10.1758L142.91 9.25C143.582 8.19531 143.93 7.10547 143.953 5.98047V4H146.648V5.81641C146.648 6.51953 146.453 7.28125 146.062 8.10156C145.672 8.92188 145.152 9.61328 144.504 10.1758ZM153.094 6.20312V9.32031H155.262V11.8047H153.094V18.1328C153.094 18.6016 153.184 18.9375 153.363 19.1406C153.543 19.3438 153.887 19.4453 154.395 19.4453C154.77 19.4453 155.102 19.418 155.391 19.3633V21.9297C154.727 22.1328 154.043 22.2344 153.34 22.2344C150.965 22.2344 149.754 21.0352 149.707 18.6367V11.8047H147.855V9.32031H149.707V6.20312H153.094ZM19.2188 46.4961C19.2188 46.082 19.0117 45.7578 18.5977 45.5234C18.1914 45.2812 17.5352 45.0664 16.6289 44.8789C13.6133 44.2461 12.1055 42.9648 12.1055 41.0352C12.1055 39.9102 12.5703 38.9727 13.5 38.2227C14.4375 37.4648 15.6602 37.0859 17.168 37.0859C18.7773 37.0859 20.0625 37.4648 21.0234 38.2227C21.9922 38.9805 22.4766 39.9648 22.4766 41.1758H19.0898C19.0898 40.6914 18.9336 40.293 18.6211 39.9805C18.3086 39.6602 17.8203 39.5 17.1562 39.5C16.5859 39.5 16.1445 39.6289 15.832 39.8867C15.5195 40.1445 15.3633 40.4727 15.3633 40.8711C15.3633 41.2461 15.5391 41.5508 15.8906 41.7852C16.25 42.0117 16.8516 42.2109 17.6953 42.3828C18.5391 42.5469 19.25 42.7344 19.8281 42.9453C21.6172 43.6016 22.5117 44.7383 22.5117 46.3555C22.5117 47.5117 22.0156 48.4492 21.0234 49.168C20.0312 49.8789 18.75 50.2344 17.1797 50.2344C16.1172 50.2344 15.1719 50.0469 14.3438 49.6719C13.5234 49.2891 12.8789 48.7695 12.4102 48.1133C11.9414 47.4492 11.707 46.7344 11.707 45.9688H14.918C14.9492 46.5703 15.1719 47.0312 15.5859 47.3516C16 47.6719 16.5547 47.832 17.25 47.832C17.8984 47.832 18.3867 47.7109 18.7148 47.4688C19.0508 47.2188 19.2188 46.8945 19.2188 46.4961ZM30.5391 50.2344C28.6797 50.2344 27.1641 49.6641 25.9922 48.5234C24.8281 47.3828 24.2461 45.8633 24.2461 43.9648V43.6367C24.2461 42.3633 24.4922 41.2266 24.9844 40.2266C25.4766 39.2188 26.1719 38.4453 27.0703 37.9062C27.9766 37.3594 29.0078 37.0859 30.1641 37.0859C31.8984 37.0859 33.2617 37.6328 34.2539 38.7266C35.2539 39.8203 35.7539 41.3711 35.7539 43.3789V44.7617H27.6797C27.7891 45.5898 28.1172 46.2539 28.6641 46.7539C29.2188 47.2539 29.918 47.5039 30.7617 47.5039C32.0664 47.5039 33.0859 47.0312 33.8203 46.0859L35.4844 47.9492C34.9766 48.668 34.2891 49.2305 33.4219 49.6367C32.5547 50.0352 31.5938 50.2344 30.5391 50.2344ZM30.1523 39.8281C29.4805 39.8281 28.9336 40.0547 28.5117 40.5078C28.0977 40.9609 27.832 41.6094 27.7148 42.4531H32.4258V42.1836C32.4102 41.4336 32.207 40.8555 31.8164 40.4492C31.4258 40.0352 30.8711 39.8281 30.1523 39.8281ZM43.5234 50.2344C41.6641 50.2344 40.1484 49.6641 38.9766 48.5234C37.8125 47.3828 37.2305 45.8633 37.2305 43.9648V43.6367C37.2305 42.3633 37.4766 41.2266 37.9688 40.2266C38.4609 39.2188 39.1562 38.4453 40.0547 37.9062C40.9609 37.3594 41.9922 37.0859 43.1484 37.0859C44.8828 37.0859 46.2461 37.6328 47.2383 38.7266C48.2383 39.8203 48.7383 41.3711 48.7383 43.3789V44.7617H40.6641C40.7734 45.5898 41.1016 46.2539 41.6484 46.7539C42.2031 47.2539 42.9023 47.5039 43.7461 47.5039C45.0508 47.5039 46.0703 47.0312 46.8047 46.0859L48.4688 47.9492C47.9609 48.668 47.2734 49.2305 46.4062 49.6367C45.5391 50.0352 44.5781 50.2344 43.5234 50.2344ZM43.1367 39.8281C42.4648 39.8281 41.918 40.0547 41.4961 40.5078C41.082 40.9609 40.8164 41.6094 40.6992 42.4531H45.4102V42.1836C45.3945 41.4336 45.1914 40.8555 44.8008 40.4492C44.4102 40.0352 43.8555 39.8281 43.1367 39.8281ZM61.9219 47.5039C62.5469 47.5039 63.0547 47.332 63.4453 46.9883C63.8359 46.6445 64.0391 46.1875 64.0547 45.6172H67.2305C67.2227 46.4766 66.9883 47.2656 66.5273 47.9844C66.0664 48.6953 65.4336 49.25 64.6289 49.6484C63.832 50.0391 62.9492 50.2344 61.9805 50.2344C60.168 50.2344 58.7383 49.6602 57.6914 48.5117C56.6445 47.3555 56.1211 45.7617 56.1211 43.7305V43.5078C56.1211 41.5547 56.6406 39.9961 57.6797 38.832C58.7188 37.668 60.1445 37.0859 61.957 37.0859C63.543 37.0859 64.8125 37.5391 65.7656 38.4453C66.7266 39.3438 67.2148 40.543 67.2305 42.043H64.0547C64.0391 41.3867 63.8359 40.8555 63.4453 40.4492C63.0547 40.0352 62.5391 39.8281 61.8984 39.8281C61.1094 39.8281 60.5117 40.1172 60.1055 40.6953C59.707 41.2656 59.5078 42.1953 59.5078 43.4844V43.8359C59.5078 45.1406 59.707 46.0781 60.1055 46.6484C60.5039 47.2188 61.1094 47.5039 61.9219 47.5039ZM72.7383 50H69.3398V37.3203H72.7383V50ZM69.1406 34.0391C69.1406 33.5312 69.3086 33.1133 69.6445 32.7852C69.9883 32.457 70.4531 32.293 71.0391 32.293C71.6172 32.293 72.0781 32.457 72.4219 32.7852C72.7656 33.1133 72.9375 33.5312 72.9375 34.0391C72.9375 34.5547 72.7617 34.9766 72.4102 35.3047C72.0664 35.6328 71.6094 35.7969 71.0391 35.7969C70.4688 35.7969 70.0078 35.6328 69.6562 35.3047C69.3125 34.9766 69.1406 34.5547 69.1406 34.0391ZM79.5938 34.2031V37.3203H81.7617V39.8047H79.5938V46.1328C79.5938 46.6016 79.6836 46.9375 79.8633 47.1406C80.043 47.3438 80.3867 47.4453 80.8945 47.4453C81.2695 47.4453 81.6016 47.418 81.8906 47.3633V49.9297C81.2266 50.1328 80.543 50.2344 79.8398 50.2344C77.4648 50.2344 76.2539 49.0352 76.207 46.6367V39.8047H74.3555V37.3203H76.207V34.2031H79.5938ZM87.2227 50H83.8242V37.3203H87.2227V50ZM83.625 34.0391C83.625 33.5312 83.793 33.1133 84.1289 32.7852C84.4727 32.457 84.9375 32.293 85.5234 32.293C86.1016 32.293 86.5625 32.457 86.9062 32.7852C87.25 33.1133 87.4219 33.5312 87.4219 34.0391C87.4219 34.5547 87.2461 34.9766 86.8945 35.3047C86.5508 35.6328 86.0938 35.7969 85.5234 35.7969C84.9531 35.7969 84.4922 35.6328 84.1406 35.3047C83.7969 34.9766 83.625 34.5547 83.625 34.0391ZM95.8594 50.2344C94 50.2344 92.4844 49.6641 91.3125 48.5234C90.1484 47.3828 89.5664 45.8633 89.5664 43.9648V43.6367C89.5664 42.3633 89.8125 41.2266 90.3047 40.2266C90.7969 39.2188 91.4922 38.4453 92.3906 37.9062C93.2969 37.3594 94.3281 37.0859 95.4844 37.0859C97.2188 37.0859 98.582 37.6328 99.5742 38.7266C100.574 39.8203 101.074 41.3711 101.074 43.3789V44.7617H93C93.1094 45.5898 93.4375 46.2539 93.9844 46.7539C94.5391 47.2539 95.2383 47.5039 96.082 47.5039C97.3867 47.5039 98.4062 47.0312 99.1406 46.0859L100.805 47.9492C100.297 48.668 99.6094 49.2305 98.7422 49.6367C97.875 50.0352 96.9141 50.2344 95.8594 50.2344ZM95.4727 39.8281C94.8008 39.8281 94.2539 40.0547 93.832 40.5078C93.418 40.9609 93.1523 41.6094 93.0352 42.4531H97.7461V42.1836C97.7305 41.4336 97.5273 40.8555 97.1367 40.4492C96.7461 40.0352 96.1914 39.8281 95.4727 39.8281ZM109.875 46.4961C109.875 46.082 109.668 45.7578 109.254 45.5234C108.848 45.2812 108.191 45.0664 107.285 44.8789C104.27 44.2461 102.762 42.9648 102.762 41.0352C102.762 39.9102 103.227 38.9727 104.156 38.2227C105.094 37.4648 106.316 37.0859 107.824 37.0859C109.434 37.0859 110.719 37.4648 111.68 38.2227C112.648 38.9805 113.133 39.9648 113.133 41.1758H109.746C109.746 40.6914 109.59 40.293 109.277 39.9805C108.965 39.6602 108.477 39.5 107.812 39.5C107.242 39.5 106.801 39.6289 106.488 39.8867C106.176 40.1445 106.02 40.4727 106.02 40.8711C106.02 41.2461 106.195 41.5508 106.547 41.7852C106.906 42.0117 107.508 42.2109 108.352 42.3828C109.195 42.5469 109.906 42.7344 110.484 42.9453C112.273 43.6016 113.168 44.7383 113.168 46.3555C113.168 47.5117 112.672 48.4492 111.68 49.168C110.688 49.8789 109.406 50.2344 107.836 50.2344C106.773 50.2344 105.828 50.0469 105 49.6719C104.18 49.2891 103.535 48.7695 103.066 48.1133C102.598 47.4492 102.363 46.7344 102.363 45.9688H105.574C105.605 46.5703 105.828 47.0312 106.242 47.3516C106.656 47.6719 107.211 47.832 107.906 47.832C108.555 47.832 109.043 47.7109 109.371 47.4688C109.707 47.2188 109.875 46.8945 109.875 46.4961ZM124.641 38.7031C125.539 37.625 126.668 37.0859 128.027 37.0859C130.777 37.0859 132.172 38.6836 132.211 41.8789V50H128.824V41.9727C128.824 41.2461 128.668 40.7109 128.355 40.3672C128.043 40.0156 127.523 39.8398 126.797 39.8398C125.805 39.8398 125.086 40.2227 124.641 40.9883V50H121.254V32H124.641V38.7031ZM140.602 50.2344C138.742 50.2344 137.227 49.6641 136.055 48.5234C134.891 47.3828 134.309 45.8633 134.309 43.9648V43.6367C134.309 42.3633 134.555 41.2266 135.047 40.2266C135.539 39.2188 136.234 38.4453 137.133 37.9062C138.039 37.3594 139.07 37.0859 140.227 37.0859C141.961 37.0859 143.324 37.6328 144.316 38.7266C145.316 39.8203 145.816 41.3711 145.816 43.3789V44.7617H137.742C137.852 45.5898 138.18 46.2539 138.727 46.7539C139.281 47.2539 139.98 47.5039 140.824 47.5039C142.129 47.5039 143.148 47.0312 143.883 46.0859L145.547 47.9492C145.039 48.668 144.352 49.2305 143.484 49.6367C142.617 50.0352 141.656 50.2344 140.602 50.2344ZM140.215 39.8281C139.543 39.8281 138.996 40.0547 138.574 40.5078C138.16 40.9609 137.895 41.6094 137.777 42.4531H142.488V42.1836C142.473 41.4336 142.27 40.8555 141.879 40.4492C141.488 40.0352 140.934 39.8281 140.215 39.8281ZM154.875 40.4961C154.414 40.4336 154.008 40.4023 153.656 40.4023C152.375 40.4023 151.535 40.8359 151.137 41.7031V50H147.75V37.3203H150.949L151.043 38.832C151.723 37.668 152.664 37.0859 153.867 37.0859C154.242 37.0859 154.594 37.1367 154.922 37.2383L154.875 40.4961ZM162.117 50.2344C160.258 50.2344 158.742 49.6641 157.57 48.5234C156.406 47.3828 155.824 45.8633 155.824 43.9648V43.6367C155.824 42.3633 156.07 41.2266 156.562 40.2266C157.055 39.2188 157.75 38.4453 158.648 37.9062C159.555 37.3594 160.586 37.0859 161.742 37.0859C163.477 37.0859 164.84 37.6328 165.832 38.7266C166.832 39.8203 167.332 41.3711 167.332 43.3789V44.7617H159.258C159.367 45.5898 159.695 46.2539 160.242 46.7539C160.797 47.2539 161.496 47.5039 162.34 47.5039C163.645 47.5039 164.664 47.0312 165.398 46.0859L167.062 47.9492C166.555 48.668 165.867 49.2305 165 49.6367C164.133 50.0352 163.172 50.2344 162.117 50.2344ZM161.73 39.8281C161.059 39.8281 160.512 40.0547 160.09 40.5078C159.676 40.9609 159.41 41.6094 159.293 42.4531H164.004V42.1836C163.988 41.4336 163.785 40.8555 163.395 40.4492C163.004 40.0352 162.449 39.8281 161.73 39.8281ZM169.441 48.3359C169.441 47.7969 169.621 47.3594 169.98 47.0234C170.348 46.6875 170.805 46.5195 171.352 46.5195C171.906 46.5195 172.363 46.6875 172.723 47.0234C173.09 47.3594 173.273 47.7969 173.273 48.3359C173.273 48.8672 173.094 49.3008 172.734 49.6367C172.375 49.9648 171.914 50.1289 171.352 50.1289C170.797 50.1289 170.34 49.9648 169.98 49.6367C169.621 49.3008 169.441 48.8672 169.441 48.3359Z" fill="#55AAFF"/>
</svg>
