<svg width="382" height="257" viewBox="0 0 382 257" fill="none" xmlns="http://www.w3.org/2000/svg">
<path d="M139.023 47.7344H144.824V55.9258H139.023V67H128.863V55.9258H107.875L107.418 49.5273L128.758 15.8125H139.023V47.7344ZM117.543 47.7344H128.863V29.6641L128.195 30.8242L117.543 47.7344ZM184.762 45.8359C184.762 52.9141 183.297 58.3281 180.367 62.0781C177.438 65.8281 173.148 67.7031 167.5 67.7031C161.922 67.7031 157.656 65.8633 154.703 62.1836C151.75 58.5039 150.238 53.2305 150.168 46.3633V36.9414C150.168 29.793 151.645 24.3672 154.598 20.6641C157.574 16.9609 161.852 15.1094 167.43 15.1094C173.008 15.1094 177.273 16.9492 180.227 20.6289C183.18 24.2852 184.691 29.5469 184.762 36.4141V45.8359ZM174.602 35.5C174.602 31.2578 174.016 28.1758 172.844 26.2539C171.695 24.3086 169.891 23.3359 167.43 23.3359C165.039 23.3359 163.27 24.2617 162.121 26.1133C160.996 27.9414 160.398 30.8125 160.328 34.7266V47.1719C160.328 51.3438 160.891 54.4492 162.016 56.4883C163.164 58.5039 164.992 59.5117 167.5 59.5117C169.984 59.5117 171.777 58.5391 172.879 56.5938C173.98 54.6484 174.555 51.6719 174.602 47.6641V35.5ZM221.711 47.7344H227.512V55.9258H221.711V67H211.551V55.9258H190.562L190.105 49.5273L211.445 15.8125H221.711V47.7344ZM200.23 47.7344H211.551V29.6641L210.883 30.8242L200.23 47.7344ZM46.4922 151H35.9453L15.4141 117.32V151H4.86719V99.8125H15.4141L35.9805 133.562V99.8125H46.4922V151ZM53.4531 131.629C53.4531 127.855 54.1797 124.492 55.6328 121.539C57.0859 118.586 59.1719 116.301 61.8906 114.684C64.6328 113.066 67.8086 112.258 71.418 112.258C76.5508 112.258 80.7344 113.828 83.9688 116.969C87.2266 120.109 89.043 124.375 89.418 129.766L89.4883 132.367C89.4883 138.203 87.8594 142.891 84.6016 146.43C81.3438 149.945 76.9727 151.703 71.4883 151.703C66.0039 151.703 61.6211 149.945 58.3398 146.43C55.082 142.914 53.4531 138.133 53.4531 132.086V131.629ZM63.6133 132.367C63.6133 135.977 64.293 138.742 65.6523 140.664C67.0117 142.562 68.957 143.512 71.4883 143.512C73.9492 143.512 75.8711 142.574 77.2539 140.699C78.6367 138.801 79.3281 135.777 79.3281 131.629C79.3281 128.09 78.6367 125.348 77.2539 123.402C75.8711 121.457 73.9258 120.484 71.418 120.484C68.9336 120.484 67.0117 121.457 65.6523 123.402C64.293 125.324 63.6133 128.312 63.6133 132.367ZM107.91 103.609V112.961H114.414V120.414H107.91V139.398C107.91 140.805 108.18 141.812 108.719 142.422C109.258 143.031 110.289 143.336 111.812 143.336C112.938 143.336 113.934 143.254 114.801 143.09V150.789C112.809 151.398 110.758 151.703 108.648 151.703C101.523 151.703 97.8906 148.105 97.75 140.91V120.414H92.1953V112.961H97.75V103.609H107.91ZM169.469 130.082H149.219V151H138.672V99.8125H172V108.355H149.219V121.574H169.469V130.082ZM175.094 131.629C175.094 127.855 175.82 124.492 177.273 121.539C178.727 118.586 180.812 116.301 183.531 114.684C186.273 113.066 189.449 112.258 193.059 112.258C198.191 112.258 202.375 113.828 205.609 116.969C208.867 120.109 210.684 124.375 211.059 129.766L211.129 132.367C211.129 138.203 209.5 142.891 206.242 146.43C202.984 149.945 198.613 151.703 193.129 151.703C187.645 151.703 183.262 149.945 179.98 146.43C176.723 142.914 175.094 138.133 175.094 132.086V131.629ZM185.254 132.367C185.254 135.977 185.934 138.742 187.293 140.664C188.652 142.562 190.598 143.512 193.129 143.512C195.59 143.512 197.512 142.574 198.895 140.699C200.277 138.801 200.969 135.777 200.969 131.629C200.969 128.09 200.277 125.348 198.895 123.402C197.512 121.457 195.566 120.484 193.059 120.484C190.574 120.484 188.652 121.457 187.293 123.402C185.934 125.324 185.254 128.312 185.254 132.367ZM240.168 147.133C237.66 150.18 234.191 151.703 229.762 151.703C225.684 151.703 222.566 150.531 220.41 148.188C218.277 145.844 217.188 142.41 217.141 137.887V112.961H227.301V137.535C227.301 141.496 229.105 143.477 232.715 143.477C236.16 143.477 238.527 142.281 239.816 139.891V112.961H250.012V151H240.449L240.168 147.133ZM267.027 112.961L267.344 117.355C270.062 113.957 273.707 112.258 278.277 112.258C282.309 112.258 285.309 113.441 287.277 115.809C289.246 118.176 290.254 121.715 290.301 126.426V151H280.141V126.672C280.141 124.516 279.672 122.957 278.734 121.996C277.797 121.012 276.238 120.52 274.059 120.52C271.199 120.52 269.055 121.738 267.625 124.176V151H257.465V112.961H267.027ZM296.453 131.699C296.453 125.77 297.777 121.047 300.426 117.531C303.098 114.016 306.742 112.258 311.359 112.258C315.062 112.258 318.121 113.641 320.535 116.406V97H330.73V151H321.555L321.062 146.957C318.531 150.121 315.273 151.703 311.289 151.703C306.812 151.703 303.215 149.945 300.496 146.43C297.801 142.891 296.453 137.98 296.453 131.699ZM306.613 132.438C306.613 136 307.234 138.73 308.477 140.629C309.719 142.527 311.523 143.477 313.891 143.477C317.031 143.477 319.246 142.152 320.535 139.504V124.492C319.27 121.844 317.078 120.52 313.961 120.52C309.062 120.52 306.613 124.492 306.613 132.438Z" fill="#55AAFF" fill-opacity="0.5"/>
<path d="M353.054 188.123C346.794 165.56 326.152 149 301.649 149C278.427 149 258.675 163.873 251.344 184.63C228.493 185.619 210 201.033 210 220.278C210 240.178 229.764 255.977 253.689 255.977H301.62C301.629 255.977 301.639 255.977 301.649 255.977C301.658 255.977 301.668 255.977 301.677 255.977H331.514C345.087 255.977 357.418 252.041 366.381 245.627C375.341 239.215 381 230.266 381 220.278C381 210.291 375.341 201.342 366.381 194.929C362.51 192.159 358.01 189.851 353.054 188.123Z" fill="white" stroke="#55AAFF" stroke-width="2"/>
<path d="M296.378 220.278C296.378 239.442 277.266 254.977 253.689 254.977C230.113 254.977 211 239.442 211 220.278C211 201.557 229.241 186.298 252.065 185.604C252.604 185.588 253.145 185.579 253.689 185.579C277.266 185.579 296.378 201.115 296.378 220.278Z" fill="#55AAFF"/>
<path d="M354 202.489C354 231.477 330.562 254.977 301.649 254.977C272.736 254.977 249.297 231.477 249.297 202.489C249.297 196.582 250.27 190.903 252.065 185.604C259.076 164.899 278.627 150 301.649 150C330.562 150 354 173.5 354 202.489Z" fill="#55AAFF"/>
<path d="M380 220.278C380 239.442 358.292 254.977 331.514 254.977C304.735 254.977 283.027 239.442 283.027 220.278C283.027 201.115 304.735 185.579 331.514 185.579C358.292 185.579 380 201.115 380 220.278Z" fill="#55AAFF"/>
<path d="M253.689 254.977L290.127 238.365L331.514 254.977H253.689Z" fill="#55AAFF"/>
<path d="M255 231.82C255 228.053 258.134 225 262 225C265.866 225 269 228.053 269 231.82C269 235.586 265.866 229.133 262 229.133C258.134 229.133 255 235.586 255 231.82Z" fill="#55AAFF"/>
<path d="M320 231.82C320 228.053 323.134 225 327 225C330.866 225 334 228.053 334 231.82C334 235.586 330.866 229.133 327 229.133C323.134 229.133 320 235.586 320 231.82Z" fill="#55AAFF"/>
<path d="M301 236.18C301 239.947 297.866 243 294 243C290.134 243 287 239.947 287 236.18C287 232.414 290.134 238.867 294 238.867C297.866 238.867 301 232.414 301 236.18Z" fill="#55AAFF"/>
<path d="M340.054 181.123C333.794 158.56 313.152 142 288.649 142C265.427 142 245.675 156.873 238.344 177.63C215.493 178.619 197 194.033 197 213.278C197 233.178 216.764 248.977 240.689 248.977H288.62C288.629 248.977 288.639 248.977 288.649 248.977C288.658 248.977 288.668 248.977 288.677 248.977H318.514C332.087 248.977 344.418 245.041 353.381 238.627C362.341 232.215 368 223.266 368 213.278C368 203.291 362.341 194.342 353.381 187.929C349.51 185.159 345.01 182.851 340.054 181.123Z" fill="white" stroke="#55AAFF" stroke-width="2"/>
<path d="M283.378 213.278C283.378 232.442 264.266 247.977 240.689 247.977C217.113 247.977 198 232.442 198 213.278C198 194.557 216.241 179.298 239.065 178.604C239.604 178.588 240.145 178.579 240.689 178.579C264.266 178.579 283.378 194.115 283.378 213.278Z" fill="white"/>
<path d="M341 195.489C341 224.477 317.562 247.977 288.649 247.977C259.736 247.977 236.297 224.477 236.297 195.489C236.297 189.582 237.27 183.903 239.065 178.604C246.076 157.899 265.627 143 288.649 143C317.562 143 341 166.5 341 195.489Z" fill="white"/>
<path d="M367 213.278C367 232.442 345.292 247.977 318.514 247.977C291.735 247.977 270.027 232.442 270.027 213.278C270.027 194.115 291.735 178.579 318.514 178.579C345.292 178.579 367 194.115 367 213.278Z" fill="white"/>
<path d="M240.689 247.977L277.127 231.365L318.514 247.977H240.689Z" fill="white"/>
<path d="M256 219.18C256 222.947 252.866 226 249 226C245.134 226 242 222.947 242 219.18C242 215.414 245.134 221.867 249 221.867C252.866 221.867 256 215.414 256 219.18Z" fill="#55AAFF"/>
<path d="M321 219.18C321 222.947 317.866 226 314 226C310.134 226 307 222.947 307 219.18C307 215.414 310.134 221.867 314 221.867C317.866 221.867 321 215.414 321 219.18Z" fill="#55AAFF"/>
<path d="M274 234.82C274 231.053 277.134 228 281 228C284.866 228 288 231.053 288 234.82C288 238.586 284.866 232.133 281 232.133C277.134 232.133 274 238.586 274 234.82Z" fill="#55AAFF"/>
</svg>
