<svg width="249" height="195" viewBox="0 0 249 195" fill="none" xmlns="http://www.w3.org/2000/svg">
<path d="M188.054 126.123C181.794 103.56 161.152 87 136.649 87C113.427 87 93.675 101.873 86.3436 122.63C63.493 123.619 45 139.033 45 158.278C45 178.178 64.764 193.977 88.6892 193.977H136.62C136.629 193.977 136.639 193.977 136.649 193.977C136.658 193.977 136.668 193.977 136.677 193.977H166.514C180.087 193.977 192.418 190.041 201.381 183.627C210.341 177.215 216 168.266 216 158.278C216 148.291 210.341 139.342 201.381 132.929C197.51 130.159 193.01 127.851 188.054 126.123Z" fill="white" stroke="#55AAFF" stroke-width="2"/>
<path d="M131.378 158.278C131.378 177.442 112.266 192.977 88.6892 192.977C65.1126 192.977 46 177.442 46 158.278C46 139.557 64.2409 124.298 87.0648 123.604C87.6038 123.588 88.1453 123.579 88.6892 123.579C112.266 123.579 131.378 139.115 131.378 158.278Z" fill="#55AAFF"/>
<path d="M189 140.489C189 169.477 165.562 192.977 136.649 192.977C107.736 192.977 84.2973 169.477 84.2973 140.489C84.2973 134.582 85.2705 128.903 87.0648 123.604C94.0764 102.899 113.627 88 136.649 88C165.562 88 189 111.5 189 140.489Z" fill="#55AAFF"/>
<path d="M215 158.278C215 177.442 193.292 192.977 166.514 192.977C139.735 192.977 118.027 177.442 118.027 158.278C118.027 139.115 139.735 123.579 166.514 123.579C193.292 123.579 215 139.115 215 158.278Z" fill="#55AAFF"/>
<path d="M88.6892 192.977L125.127 176.365L166.514 192.977H88.6892Z" fill="#55AAFF"/>
<path d="M90 169.82C90 166.053 93.134 163 97 163C100.866 163 104 166.053 104 169.82C104 173.586 100.866 167.133 97 167.133C93.134 167.133 90 173.586 90 169.82Z" fill="#55AAFF"/>
<path d="M155 169.82C155 166.053 158.134 163 162 163C165.866 163 169 166.053 169 169.82C169 173.586 165.866 167.133 162 167.133C158.134 167.133 155 173.586 155 169.82Z" fill="#55AAFF"/>
<path d="M136 174.18C136 177.947 132.866 181 129 181C125.134 181 122 177.947 122 174.18C122 170.414 125.134 176.867 129 176.867C132.866 176.867 136 170.414 136 174.18Z" fill="#55AAFF"/>
<path d="M175.054 119.123C168.794 96.56 148.152 80 123.649 80C100.427 80 80.675 94.8729 73.3436 115.63C50.493 116.619 32 132.033 32 151.278C32 171.178 51.764 186.977 75.6892 186.977H123.62C123.629 186.977 123.639 186.977 123.649 186.977C123.658 186.977 123.668 186.977 123.677 186.977H153.514C167.087 186.977 179.418 183.041 188.381 176.627C197.341 170.215 203 161.266 203 151.278C203 141.291 197.341 132.342 188.381 125.929C184.51 123.159 180.01 120.851 175.054 119.123Z" fill="white" stroke="#55AAFF" stroke-width="2"/>
<path d="M118.378 151.278C118.378 170.442 99.2658 185.977 75.6892 185.977C52.1126 185.977 33 170.442 33 151.278C33 132.557 51.2409 117.298 74.0648 116.604C74.6038 116.588 75.1453 116.579 75.6892 116.579C99.2658 116.579 118.378 132.115 118.378 151.278Z" fill="white"/>
<path d="M176 133.489C176 162.477 152.562 185.977 123.649 185.977C94.7358 185.977 71.2973 162.477 71.2973 133.489C71.2973 127.582 72.2705 121.903 74.0648 116.604C81.0764 95.8988 100.627 81 123.649 81C152.562 81 176 104.5 176 133.489Z" fill="white"/>
<path d="M202 151.278C202 170.442 180.292 185.977 153.514 185.977C126.735 185.977 105.027 170.442 105.027 151.278C105.027 132.115 126.735 116.579 153.514 116.579C180.292 116.579 202 132.115 202 151.278Z" fill="white"/>
<path d="M75.6892 185.977L112.127 169.365L153.514 185.977H75.6892Z" fill="white"/>
<path d="M91 157.18C91 160.947 87.866 164 84 164C80.134 164 77 160.947 77 157.18C77 153.414 80.134 159.867 84 159.867C87.866 159.867 91 153.414 91 157.18Z" fill="#55AAFF"/>
<path d="M156 157.18C156 160.947 152.866 164 149 164C145.134 164 142 160.947 142 157.18C142 153.414 145.134 159.867 149 159.867C152.866 159.867 156 153.414 156 157.18Z" fill="#55AAFF"/>
<path d="M109 172.82C109 169.053 112.134 166 116 166C119.866 166 123 169.053 123 172.82C123 176.586 119.866 170.133 116 170.133C112.134 170.133 109 176.586 109 172.82Z" fill="#55AAFF"/>
<path d="M102.539 17.5234C102.539 16.8594 102.305 16.3516 101.836 16C101.367 15.6406 100.523 15.2656 99.3047 14.875C98.0859 14.4766 97.1211 14.0859 96.4102 13.7031C94.4727 12.6562 93.5039 11.2461 93.5039 9.47266C93.5039 8.55078 93.7617 7.73047 94.2773 7.01172C94.8008 6.28516 95.5469 5.71875 96.5156 5.3125C97.4922 4.90625 98.5859 4.70312 99.7969 4.70312C101.016 4.70312 102.102 4.92578 103.055 5.37109C104.008 5.80859 104.746 6.42969 105.27 7.23438C105.801 8.03906 106.066 8.95312 106.066 9.97656H102.551C102.551 9.19531 102.305 8.58984 101.812 8.16016C101.32 7.72266 100.629 7.50391 99.7383 7.50391C98.8789 7.50391 98.2109 7.6875 97.7344 8.05469C97.2578 8.41406 97.0195 8.89062 97.0195 9.48438C97.0195 10.0391 97.2969 10.5039 97.8516 10.8789C98.4141 11.2539 99.2383 11.6055 100.324 11.9336C102.324 12.5352 103.781 13.2812 104.695 14.1719C105.609 15.0625 106.066 16.1719 106.066 17.5C106.066 18.9766 105.508 20.1367 104.391 20.9805C103.273 21.8164 101.77 22.2344 99.8789 22.2344C98.5664 22.2344 97.3711 21.9961 96.293 21.5195C95.2148 21.0352 94.3906 20.375 93.8203 19.5391C93.2578 18.7031 92.9766 17.7344 92.9766 16.6328H96.5039C96.5039 18.5156 97.6289 19.457 99.8789 19.457C100.715 19.457 101.367 19.2891 101.836 18.9531C102.305 18.6094 102.539 18.1328 102.539 17.5234ZM107.707 15.543C107.707 14.2852 107.949 13.1641 108.434 12.1797C108.918 11.1953 109.613 10.4336 110.52 9.89453C111.434 9.35547 112.492 9.08594 113.695 9.08594C115.406 9.08594 116.801 9.60938 117.879 10.6562C118.965 11.7031 119.57 13.125 119.695 14.9219L119.719 15.7891C119.719 17.7344 119.176 19.2969 118.09 20.4766C117.004 21.6484 115.547 22.2344 113.719 22.2344C111.891 22.2344 110.43 21.6484 109.336 20.4766C108.25 19.3047 107.707 17.7109 107.707 15.6953V15.543ZM111.094 15.7891C111.094 16.9922 111.32 17.9141 111.773 18.5547C112.227 19.1875 112.875 19.5039 113.719 19.5039C114.539 19.5039 115.18 19.1914 115.641 18.5664C116.102 17.9336 116.332 16.9258 116.332 15.543C116.332 14.3633 116.102 13.4492 115.641 12.8008C115.18 12.1523 114.531 11.8281 113.695 11.8281C112.867 11.8281 112.227 12.1523 111.773 12.8008C111.32 13.4414 111.094 14.4375 111.094 15.7891ZM128.93 12.4961C128.469 12.4336 128.062 12.4023 127.711 12.4023C126.43 12.4023 125.59 12.8359 125.191 13.7031V22H121.805V9.32031H125.004L125.098 10.832C125.777 9.66797 126.719 9.08594 127.922 9.08594C128.297 9.08594 128.648 9.13672 128.977 9.23828L128.93 12.4961ZM137.695 12.4961C137.234 12.4336 136.828 12.4023 136.477 12.4023C135.195 12.4023 134.355 12.8359 133.957 13.7031V22H130.57V9.32031H133.77L133.863 10.832C134.543 9.66797 135.484 9.08594 136.688 9.08594C137.062 9.08594 137.414 9.13672 137.742 9.23828L137.695 12.4961ZM144.281 17.207L146.625 9.32031H150.258L145.16 23.9688L144.879 24.6367C144.121 26.293 142.871 27.1211 141.129 27.1211C140.637 27.1211 140.137 27.0469 139.629 26.8984V24.332L140.145 24.3438C140.785 24.3438 141.262 24.2461 141.574 24.0508C141.895 23.8555 142.145 23.5312 142.324 23.0781L142.723 22.0352L138.281 9.32031H141.926L144.281 17.207ZM155.039 16.7617H152.227L151.828 4.9375H155.438L155.039 16.7617ZM153.633 18.6133C154.203 18.6133 154.66 18.7812 155.004 19.1172C155.355 19.4531 155.531 19.8828 155.531 20.4062C155.531 20.9219 155.355 21.3477 155.004 21.6836C154.66 22.0195 154.203 22.1875 153.633 22.1875C153.07 22.1875 152.613 22.0195 152.262 21.6836C151.918 21.3477 151.746 20.9219 151.746 20.4062C151.746 19.8906 151.918 19.4648 152.262 19.1289C152.613 18.7852 153.07 18.6133 153.633 18.6133ZM10.8398 45.5234C10.8398 44.8594 10.6055 44.3516 10.1367 44C9.66797 43.6406 8.82422 43.2656 7.60547 42.875C6.38672 42.4766 5.42188 42.0859 4.71094 41.7031C2.77344 40.6562 1.80469 39.2461 1.80469 37.4727C1.80469 36.5508 2.0625 35.7305 2.57812 35.0117C3.10156 34.2852 3.84766 33.7188 4.81641 33.3125C5.79297 32.9062 6.88672 32.7031 8.09766 32.7031C9.31641 32.7031 10.4023 32.9258 11.3555 33.3711C12.3086 33.8086 13.0469 34.4297 13.5703 35.2344C14.1016 36.0391 14.3672 36.9531 14.3672 37.9766H10.8516C10.8516 37.1953 10.6055 36.5898 10.1133 36.1602C9.62109 35.7227 8.92969 35.5039 8.03906 35.5039C7.17969 35.5039 6.51172 35.6875 6.03516 36.0547C5.55859 36.4141 5.32031 36.8906 5.32031 37.4844C5.32031 38.0391 5.59766 38.5039 6.15234 38.8789C6.71484 39.2539 7.53906 39.6055 8.625 39.9336C10.625 40.5352 12.082 41.2812 12.9961 42.1719C13.9102 43.0625 14.3672 44.1719 14.3672 45.5C14.3672 46.9766 13.8086 48.1367 12.6914 48.9805C11.5742 49.8164 10.0703 50.2344 8.17969 50.2344C6.86719 50.2344 5.67188 49.9961 4.59375 49.5195C3.51562 49.0352 2.69141 48.375 2.12109 47.5391C1.55859 46.7031 1.27734 45.7344 1.27734 44.6328H4.80469C4.80469 46.5156 5.92969 47.457 8.17969 47.457C9.01562 47.457 9.66797 47.2891 10.1367 46.9531C10.6055 46.6094 10.8398 46.1328 10.8398 45.5234ZM16.0078 43.543C16.0078 42.2852 16.25 41.1641 16.7344 40.1797C17.2188 39.1953 17.9141 38.4336 18.8203 37.8945C19.7344 37.3555 20.793 37.0859 21.9961 37.0859C23.707 37.0859 25.1016 37.6094 26.1797 38.6562C27.2656 39.7031 27.8711 41.125 27.9961 42.9219L28.0195 43.7891C28.0195 45.7344 27.4766 47.2969 26.3906 48.4766C25.3047 49.6484 23.8477 50.2344 22.0195 50.2344C20.1914 50.2344 18.7305 49.6484 17.6367 48.4766C16.5508 47.3047 16.0078 45.7109 16.0078 43.6953V43.543ZM19.3945 43.7891C19.3945 44.9922 19.6211 45.9141 20.0742 46.5547C20.5273 47.1875 21.1758 47.5039 22.0195 47.5039C22.8398 47.5039 23.4805 47.1914 23.9414 46.5664C24.4023 45.9336 24.6328 44.9258 24.6328 43.543C24.6328 42.3633 24.4023 41.4492 23.9414 40.8008C23.4805 40.1523 22.832 39.8281 21.9961 39.8281C21.168 39.8281 20.5273 40.1523 20.0742 40.8008C19.6211 41.4414 19.3945 42.4375 19.3945 43.7891ZM33.2812 37.3203L33.3867 38.7383C34.2852 37.6367 35.5 37.0859 37.0312 37.0859C38.6641 37.0859 39.7852 37.7305 40.3945 39.0195C41.2852 37.7305 42.5547 37.0859 44.2031 37.0859C45.5781 37.0859 46.6016 37.4883 47.2734 38.293C47.9453 39.0898 48.2812 40.293 48.2812 41.9023V50H44.8828V41.9141C44.8828 41.1953 44.7422 40.6719 44.4609 40.3438C44.1797 40.0078 43.6836 39.8398 42.9727 39.8398C41.957 39.8398 41.2539 40.3242 40.8633 41.293L40.875 50H37.4883V41.9258C37.4883 41.1914 37.3438 40.6602 37.0547 40.332C36.7656 40.0039 36.2734 39.8398 35.5781 39.8398C34.6172 39.8398 33.9219 40.2383 33.4922 41.0352V50H30.1055V37.3203H33.2812ZM56.7305 50.2344C54.8711 50.2344 53.3555 49.6641 52.1836 48.5234C51.0195 47.3828 50.4375 45.8633 50.4375 43.9648V43.6367C50.4375 42.3633 50.6836 41.2266 51.1758 40.2266C51.668 39.2188 52.3633 38.4453 53.2617 37.9062C54.168 37.3594 55.1992 37.0859 56.3555 37.0859C58.0898 37.0859 59.4531 37.6328 60.4453 38.7266C61.4453 39.8203 61.9453 41.3711 61.9453 43.3789V44.7617H53.8711C53.9805 45.5898 54.3086 46.2539 54.8555 46.7539C55.4102 47.2539 56.1094 47.5039 56.9531 47.5039C58.2578 47.5039 59.2773 47.0312 60.0117 46.0859L61.6758 47.9492C61.168 48.668 60.4805 49.2305 59.6133 49.6367C58.7461 50.0352 57.7852 50.2344 56.7305 50.2344ZM56.3438 39.8281C55.6719 39.8281 55.125 40.0547 54.7031 40.5078C54.2891 40.9609 54.0234 41.6094 53.9062 42.4531H58.6172V42.1836C58.6016 41.4336 58.3984 40.8555 58.0078 40.4492C57.6172 40.0352 57.0625 39.8281 56.3438 39.8281ZM67.9336 34.2031V37.3203H70.1016V39.8047H67.9336V46.1328C67.9336 46.6016 68.0234 46.9375 68.2031 47.1406C68.3828 47.3438 68.7266 47.4453 69.2344 47.4453C69.6094 47.4453 69.9414 47.418 70.2305 47.3633V49.9297C69.5664 50.1328 68.8828 50.2344 68.1797 50.2344C65.8047 50.2344 64.5938 49.0352 64.5469 46.6367V39.8047H62.6953V37.3203H64.5469V34.2031H67.9336ZM75.293 38.7031C76.1914 37.625 77.3203 37.0859 78.6797 37.0859C81.4297 37.0859 82.8242 38.6836 82.8633 41.8789V50H79.4766V41.9727C79.4766 41.2461 79.3203 40.7109 79.0078 40.3672C78.6953 40.0156 78.1758 39.8398 77.4492 39.8398C76.457 39.8398 75.7383 40.2227 75.293 40.9883V50H71.9062V32H75.293V38.7031ZM88.9922 50H85.5938V37.3203H88.9922V50ZM85.3945 34.0391C85.3945 33.5312 85.5625 33.1133 85.8984 32.7852C86.2422 32.457 86.707 32.293 87.293 32.293C87.8711 32.293 88.332 32.457 88.6758 32.7852C89.0195 33.1133 89.1914 33.5312 89.1914 34.0391C89.1914 34.5547 89.0156 34.9766 88.6641 35.3047C88.3203 35.6328 87.8633 35.7969 87.293 35.7969C86.7227 35.7969 86.2617 35.6328 85.9102 35.3047C85.5664 34.9766 85.3945 34.5547 85.3945 34.0391ZM94.9102 37.3203L95.0156 38.7852C95.9219 37.6523 97.1367 37.0859 98.6602 37.0859C100.004 37.0859 101.004 37.4805 101.66 38.2695C102.316 39.0586 102.652 40.2383 102.668 41.8086V50H99.2812V41.8906C99.2812 41.1719 99.125 40.6523 98.8125 40.332C98.5 40.0039 97.9805 39.8398 97.2539 39.8398C96.3008 39.8398 95.5859 40.2461 95.1094 41.0586V50H91.7227V37.3203H94.9102ZM104.754 43.5664C104.754 41.6211 105.215 40.0547 106.137 38.8672C107.066 37.6797 108.316 37.0859 109.887 37.0859C111.277 37.0859 112.359 37.5625 113.133 38.5156L113.273 37.3203H116.344V49.5781C116.344 50.6875 116.09 51.6523 115.582 52.4727C115.082 53.293 114.375 53.918 113.461 54.3477C112.547 54.7773 111.477 54.9922 110.25 54.9922C109.32 54.9922 108.414 54.8047 107.531 54.4297C106.648 54.0625 105.98 53.5859 105.527 53L107.027 50.9375C107.871 51.8828 108.895 52.3555 110.098 52.3555C110.996 52.3555 111.695 52.1133 112.195 51.6289C112.695 51.1523 112.945 50.4727 112.945 49.5898V48.9102C112.164 49.793 111.137 50.2344 109.863 50.2344C108.34 50.2344 107.105 49.6406 106.16 48.4531C105.223 47.2578 104.754 45.6758 104.754 43.707V43.5664ZM108.141 43.8125C108.141 44.9609 108.371 45.8633 108.832 46.5195C109.293 47.168 109.926 47.4922 110.73 47.4922C111.762 47.4922 112.5 47.1055 112.945 46.332V41C112.492 40.2266 111.762 39.8398 110.754 39.8398C109.941 39.8398 109.301 40.1719 108.832 40.8359C108.371 41.5 108.141 42.4922 108.141 43.8125ZM135.961 45.3945L137.625 37.3203H140.895L137.66 50H134.824L132.422 42.0195L130.02 50H127.195L123.961 37.3203H127.23L128.883 45.3828L131.203 37.3203H133.652L135.961 45.3945ZM148.418 50.2344C146.559 50.2344 145.043 49.6641 143.871 48.5234C142.707 47.3828 142.125 45.8633 142.125 43.9648V43.6367C142.125 42.3633 142.371 41.2266 142.863 40.2266C143.355 39.2188 144.051 38.4453 144.949 37.9062C145.855 37.3594 146.887 37.0859 148.043 37.0859C149.777 37.0859 151.141 37.6328 152.133 38.7266C153.133 39.8203 153.633 41.3711 153.633 43.3789V44.7617H145.559C145.668 45.5898 145.996 46.2539 146.543 46.7539C147.098 47.2539 147.797 47.5039 148.641 47.5039C149.945 47.5039 150.965 47.0312 151.699 46.0859L153.363 47.9492C152.855 48.668 152.168 49.2305 151.301 49.6367C150.434 50.0352 149.473 50.2344 148.418 50.2344ZM148.031 39.8281C147.359 39.8281 146.812 40.0547 146.391 40.5078C145.977 40.9609 145.711 41.6094 145.594 42.4531H150.305V42.1836C150.289 41.4336 150.086 40.8555 149.695 40.4492C149.305 40.0352 148.75 39.8281 148.031 39.8281ZM158.684 37.3203L158.789 38.7852C159.695 37.6523 160.91 37.0859 162.434 37.0859C163.777 37.0859 164.777 37.4805 165.434 38.2695C166.09 39.0586 166.426 40.2383 166.441 41.8086V50H163.055V41.8906C163.055 41.1719 162.898 40.6523 162.586 40.332C162.273 40.0039 161.754 39.8398 161.027 39.8398C160.074 39.8398 159.359 40.2461 158.883 41.0586V50H155.496V37.3203H158.684ZM173.074 34.2031V37.3203H175.242V39.8047H173.074V46.1328C173.074 46.6016 173.164 46.9375 173.344 47.1406C173.523 47.3438 173.867 47.4453 174.375 47.4453C174.75 47.4453 175.082 47.418 175.371 47.3633V49.9297C174.707 50.1328 174.023 50.2344 173.32 50.2344C170.945 50.2344 169.734 49.0352 169.688 46.6367V39.8047H167.836V37.3203H169.688V34.2031H173.074ZM194.133 45.3945L195.797 37.3203H199.066L195.832 50H192.996L190.594 42.0195L188.191 50H185.367L182.133 37.3203H185.402L187.055 45.3828L189.375 37.3203H191.824L194.133 45.3945ZM207.879 40.4961C207.418 40.4336 207.012 40.4023 206.66 40.4023C205.379 40.4023 204.539 40.8359 204.141 41.7031V50H200.754V37.3203H203.953L204.047 38.832C204.727 37.668 205.668 37.0859 206.871 37.0859C207.246 37.0859 207.598 37.1367 207.926 37.2383L207.879 40.4961ZM208.57 43.543C208.57 42.2852 208.812 41.1641 209.297 40.1797C209.781 39.1953 210.477 38.4336 211.383 37.8945C212.297 37.3555 213.355 37.0859 214.559 37.0859C216.27 37.0859 217.664 37.6094 218.742 38.6562C219.828 39.7031 220.434 41.125 220.559 42.9219L220.582 43.7891C220.582 45.7344 220.039 47.2969 218.953 48.4766C217.867 49.6484 216.41 50.2344 214.582 50.2344C212.754 50.2344 211.293 49.6484 210.199 48.4766C209.113 47.3047 208.57 45.7109 208.57 43.6953V43.543ZM211.957 43.7891C211.957 44.9922 212.184 45.9141 212.637 46.5547C213.09 47.1875 213.738 47.5039 214.582 47.5039C215.402 47.5039 216.043 47.1914 216.504 46.5664C216.965 45.9336 217.195 44.9258 217.195 43.543C217.195 42.3633 216.965 41.4492 216.504 40.8008C216.043 40.1523 215.395 39.8281 214.559 39.8281C213.73 39.8281 213.09 40.1523 212.637 40.8008C212.184 41.4414 211.957 42.4375 211.957 43.7891ZM225.785 37.3203L225.891 38.7852C226.797 37.6523 228.012 37.0859 229.535 37.0859C230.879 37.0859 231.879 37.4805 232.535 38.2695C233.191 39.0586 233.527 40.2383 233.543 41.8086V50H230.156V41.8906C230.156 41.1719 230 40.6523 229.688 40.332C229.375 40.0039 228.855 39.8398 228.129 39.8398C227.176 39.8398 226.461 40.2461 225.984 41.0586V50H222.598V37.3203H225.785ZM235.629 43.5664C235.629 41.6211 236.09 40.0547 237.012 38.8672C237.941 37.6797 239.191 37.0859 240.762 37.0859C242.152 37.0859 243.234 37.5625 244.008 38.5156L244.148 37.3203H247.219V49.5781C247.219 50.6875 246.965 51.6523 246.457 52.4727C245.957 53.293 245.25 53.918 244.336 54.3477C243.422 54.7773 242.352 54.9922 241.125 54.9922C240.195 54.9922 239.289 54.8047 238.406 54.4297C237.523 54.0625 236.855 53.5859 236.402 53L237.902 50.9375C238.746 51.8828 239.77 52.3555 240.973 52.3555C241.871 52.3555 242.57 52.1133 243.07 51.6289C243.57 51.1523 243.82 50.4727 243.82 49.5898V48.9102C243.039 49.793 242.012 50.2344 240.738 50.2344C239.215 50.2344 237.98 49.6406 237.035 48.4531C236.098 47.2578 235.629 45.6758 235.629 43.707V43.5664ZM239.016 43.8125C239.016 44.9609 239.246 45.8633 239.707 46.5195C240.168 47.168 240.801 47.4922 241.605 47.4922C242.637 47.4922 243.375 47.1055 243.82 46.332V41C243.367 40.2266 242.637 39.8398 241.629 39.8398C240.816 39.8398 240.176 40.1719 239.707 40.8359C239.246 41.5 239.016 42.4922 239.016 43.8125Z" fill="#55AAFF"/>
</svg>
