<svg width="1440" height="143" viewBox="0 0 1440 143" fill="none" xmlns="http://www.w3.org/2000/svg">
<path fill-rule="evenodd" clip-rule="evenodd" d="M1440 38.0877L1405.2 46.8304C1371.6 55.5731 1303.2 73.0585 1234.8 75.9727C1165.2 78.8869 1096.8 67.23 1028.4 46.8304C960 26.4308 891.6 -2.71152 823.2 0.202706C754.8 3.11694 685.2 38.0877 616.8 46.8304C548.4 55.5731 480 38.0877 411.6 29.345C343.2 20.6023 274.8 20.6023 205.2 26.4308C136.8 32.2592 68.3999 43.9162 34.7999 49.7446L-5.72205e-05 55.5731V143H34.7999C68.3999 143 136.8 143 205.2 143C274.8 143 343.2 143 411.6 143C480 143 548.4 143 616.8 143C685.2 143 754.8 143 823.2 143C891.6 143 960 143 1028.4 143C1096.8 143 1165.2 143 1234.8 143C1303.2 143 1371.6 143 1405.2 143H1440V38.0877Z" fill="#80D1FF"/>
<path fill-rule="evenodd" clip-rule="evenodd" d="M0 38.0877L34.8 46.8304C68.4 55.5731 136.8 73.0585 205.2 75.9727C274.8 78.8869 343.2 67.23 411.6 46.8304C480 26.4308 548.4 -2.71152 616.8 0.202706C685.2 3.11694 754.8 38.0877 823.2 46.8304C891.6 55.5731 960 38.0877 1028.4 29.345C1096.8 20.6023 1165.2 20.6023 1234.8 26.4308C1303.2 32.2592 1371.6 43.9162 1405.2 49.7446L1440 55.5731V143H1405.2C1371.6 143 1303.2 143 1234.8 143C1165.2 143 1096.8 143 1028.4 143C960 143 891.6 143 823.2 143C754.8 143 685.2 143 616.8 143C548.4 143 480 143 411.6 143C343.2 143 274.8 143 205.2 143C136.8 143 68.4 143 34.8 143H0V38.0877Z" fill="#0099FF"/>
</svg>
